<svg width="566" height="177" viewBox="0 0 566 177" fill="none" xmlns="http://www.w3.org/2000/svg">
<path d="M428.031 36.3411C440.312 36.3411 450.227 46.0511 450.227 57.9779C450.227 69.9047 440.312 79.6146 428.031 79.6146C415.75 79.6143 405.836 69.9045 405.836 57.9779C405.836 46.0512 415.75 36.3414 428.031 36.3411Z" fill="#B9E3F9" stroke="#00B0EC" stroke-width="2"/>
<path d="M419.641 46.6914C419.641 47.8216 418.673 48.7377 417.478 48.7377C416.283 48.7377 415.315 47.8216 415.315 46.6914C415.315 45.5613 416.283 44.6452 417.478 44.6452C418.673 44.6452 419.641 45.5613 419.641 46.6914Z" fill="white"/>
<path d="M414.284 51.5092C412.124 56.7259 412.321 59.0931 413.587 64.5553" stroke="white" stroke-width="3" stroke-linecap="round"/>
<path d="M129.567 118.774C141.849 118.774 151.763 128.484 151.763 140.411C151.763 152.338 141.849 162.047 129.567 162.047C117.286 162.047 107.372 152.337 107.372 140.411C107.372 128.484 117.286 118.774 129.567 118.774Z" fill="#B9E3F9" stroke="#00B0EC" stroke-width="2"/>
<path d="M121.177 129.124C121.177 130.254 120.209 131.171 119.014 131.171C117.819 131.171 116.851 130.254 116.851 129.124C116.851 127.994 117.819 127.078 119.014 127.078C120.209 127.078 121.177 127.994 121.177 129.124Z" fill="white"/>
<path d="M115.82 133.942C113.66 139.159 113.857 141.526 115.123 146.988" stroke="white" stroke-width="3" stroke-linecap="round"/>
<path d="M23.1953 70.5601C35.4768 70.5601 45.3916 80.27 45.3916 92.1968C45.3916 104.124 35.4768 113.834 23.1953 113.834C10.914 113.833 1 104.123 1 92.1968C1.00004 80.2701 10.914 70.5603 23.1953 70.5601Z" fill="#B9E3F9" stroke="#00B0EC" stroke-width="2"/>
<path d="M14.8055 80.9104C14.8055 82.0405 13.837 82.9567 12.6423 82.9567C11.4476 82.9567 10.479 82.0405 10.479 80.9104C10.479 79.7802 11.4476 78.8641 12.6423 78.8641C13.837 78.8641 14.8055 79.7802 14.8055 80.9104Z" fill="white"/>
<path d="M9.44791 85.7281C7.28792 90.9448 7.48573 93.312 8.75106 98.7742" stroke="white" stroke-width="3" stroke-linecap="round"/>
<path d="M111.117 1C133.51 1.00019 151.763 20.289 151.763 44.21C151.763 68.1308 133.51 87.4188 111.117 87.4189C88.7247 87.4189 70.4711 68.1309 70.4709 44.21C70.4709 20.2889 88.7246 1 111.117 1Z" fill="#B9E3F9" stroke="#00B0EC" stroke-width="2"/>
<path d="M96.053 22.1671C96.053 24.3742 94.3141 26.1635 92.1691 26.1635C90.0241 26.1635 88.2852 24.3742 88.2852 22.1671C88.2852 19.9599 90.0241 18.1707 92.1691 18.1707C94.3141 18.1707 96.053 19.9599 96.053 22.1671Z" fill="white"/>
<path d="M86.4339 31.5762C82.5558 41.7643 82.9109 46.3874 85.1828 57.0551" stroke="white" stroke-width="3" stroke-linecap="round"/>
<path d="M523.449 71.7878C545.842 71.788 564.094 91.0768 564.094 114.998C564.094 138.919 545.842 158.207 523.449 158.207C501.056 158.207 482.803 138.919 482.803 114.998C482.803 91.0767 501.056 71.7878 523.449 71.7878Z" fill="#B9E3F9" stroke="#00B0EC" stroke-width="2"/>
<path d="M508.385 92.9549C508.385 95.162 506.646 96.9513 504.501 96.9513C502.356 96.9513 500.617 95.162 500.617 92.9549C500.617 90.7477 502.356 88.9585 504.501 88.9585C506.646 88.9585 508.385 90.7477 508.385 92.9549Z" fill="white"/>
<path d="M498.766 102.364C494.887 112.552 495.243 117.175 497.514 127.843" stroke="white" stroke-width="3" stroke-linecap="round"/>
<path d="M230.563 71.7878C238.069 71.7878 244.099 77.6705 244.099 84.8591C244.099 92.0475 238.069 97.9294 230.563 97.9294C223.057 97.9291 217.028 92.0474 217.028 84.8591C217.028 77.6707 223.056 71.788 230.563 71.7878Z" fill="#B9E3F9" stroke="#00B0EC" stroke-width="2"/>
<path d="M225.305 77.8431C225.305 78.5456 224.698 79.1151 223.95 79.1151C223.201 79.1151 222.594 78.5456 222.594 77.8431C222.594 77.1406 223.201 76.5712 223.95 76.5712C224.698 76.5712 225.305 77.1406 225.305 77.8431Z" fill="white"/>
<path d="M221.948 80.8379C220.594 84.0805 220.718 85.552 221.511 88.9473" stroke="white" stroke-width="3" stroke-linecap="round"/>
<path d="M419.641 135.906C427.147 135.906 433.177 141.788 433.177 148.977C433.177 156.165 427.147 162.047 419.641 162.047C412.135 162.047 406.106 156.165 406.105 148.977C406.105 141.788 412.134 135.906 419.641 135.906Z" fill="#B9E3F9" stroke="#00B0EC" stroke-width="2"/>
<path d="M414.383 141.961C414.383 142.663 413.776 143.233 413.028 143.233C412.279 143.233 411.672 142.663 411.672 141.961C411.672 141.258 412.279 140.689 413.028 140.689C413.776 140.689 414.383 141.258 414.383 141.961Z" fill="white"/>
<path d="M411.026 144.956C409.672 148.198 409.796 149.67 410.589 153.065" stroke="white" stroke-width="3" stroke-linecap="round"/>
<path d="M323.634 52.4006C331.14 52.4006 337.17 58.2833 337.17 65.4719C337.17 72.6603 331.14 78.5422 323.634 78.5422C316.128 78.5419 310.099 72.6601 310.099 65.4719C310.099 58.2835 316.128 52.4008 323.634 52.4006Z" fill="#B9E3F9" stroke="#00B0EC" stroke-width="2"/>
<path d="M318.377 58.4559C318.377 59.1584 317.77 59.7279 317.021 59.7279C316.273 59.7279 315.666 59.1584 315.666 58.4559C315.666 57.7534 316.273 57.184 317.021 57.184C317.77 57.184 318.377 57.7534 318.377 58.4559Z" fill="white"/>
<path d="M315.019 61.4506C313.666 64.6933 313.79 66.1648 314.583 69.5601" stroke="white" stroke-width="3" stroke-linecap="round"/>
<path d="M177.025 134.446C177.091 133.446 177.225 132.812 177.425 132.546C177.691 132.279 177.958 132.146 178.225 132.146C178.958 132.146 179.258 132.612 179.125 133.546C178.658 134.212 178.125 134.546 177.525 134.546C177.391 134.546 177.291 134.546 177.225 134.546C177.225 134.479 177.158 134.446 177.025 134.446ZM182.325 134.746L182.125 134.446C182.391 134.112 182.591 133.879 182.725 133.746C182.925 133.612 183.058 133.479 183.125 133.346C184.125 132.879 184.925 132.646 185.525 132.646C186.191 132.646 186.725 132.846 187.125 133.246C187.458 133.579 187.691 133.979 187.825 134.446C188.025 134.912 187.958 135.379 187.625 135.846C187.358 135.912 187.058 136.112 186.725 136.446C186.458 136.579 186.091 136.646 185.625 136.646C185.225 136.579 184.825 136.512 184.425 136.446C184.091 136.379 183.725 136.212 183.325 135.946C182.791 135.812 182.491 135.646 182.425 135.446C182.358 135.246 182.325 135.012 182.325 134.746ZM202.325 131.246C203.058 131.579 203.625 132.146 204.025 132.946C204.425 133.679 204.525 134.512 204.325 135.446C203.991 135.912 203.691 136.179 203.425 136.246H203.125C202.791 136.246 202.558 136.279 202.425 136.346L202.025 136.046C201.958 135.979 201.791 135.946 201.525 135.946H201.325C200.658 135.212 200.325 134.446 200.325 133.646C200.325 133.046 200.425 132.446 200.625 131.846L201.525 131.546C201.658 131.479 201.791 131.446 201.925 131.446C202.058 131.379 202.191 131.312 202.325 131.246ZM165.725 93.8456C165.925 93.9789 166.025 94.2789 166.025 94.7456C166.025 95.2122 165.991 95.5789 165.925 95.8456C165.525 96.2456 165.358 96.5456 165.425 96.7456C165.025 96.7456 164.691 96.7456 164.425 96.7456C164.158 96.6789 163.925 96.6456 163.725 96.6456C163.191 96.4456 162.891 96.1122 162.825 95.6456C162.758 95.1122 162.758 94.6122 162.825 94.1456C163.225 93.7456 163.558 93.4789 163.825 93.3456C164.758 93.1456 165.391 93.3122 165.725 93.8456ZM195.625 125.246C195.958 125.979 196.158 126.512 196.225 126.846C196.358 127.246 196.391 127.646 196.325 128.046C196.458 128.312 196.591 128.712 196.725 129.246C196.925 130.312 197.158 131.146 197.425 131.746C197.558 131.946 197.658 132.146 197.725 132.346C197.791 132.479 197.825 132.646 197.825 132.846C197.958 133.379 198.091 133.746 198.225 133.946C198.291 134.079 198.325 134.246 198.325 134.446C198.325 134.579 198.358 134.746 198.425 134.946C198.691 135.279 198.858 135.579 198.925 135.846C199.058 136.112 199.191 136.312 199.325 136.446C199.458 136.846 199.591 137.146 199.725 137.346C199.858 137.612 200.025 137.879 200.225 138.146C200.758 138.546 201.058 138.979 201.125 139.446C201.125 139.712 201.225 139.946 201.425 140.146C201.491 140.479 201.558 140.746 201.625 140.946C201.691 141.146 201.791 141.412 201.925 141.746C201.858 141.946 201.891 142.279 202.025 142.746C201.758 143.479 201.325 144.279 200.725 145.146C200.125 146.012 199.358 146.446 198.425 146.446C198.158 146.446 197.958 146.579 197.825 146.846H197.525C197.258 146.846 197.025 146.879 196.825 146.946C196.758 147.012 196.625 147.046 196.425 147.046C196.091 147.046 195.758 146.979 195.425 146.846C195.158 146.712 194.991 146.579 194.925 146.446C194.658 146.246 194.458 146.112 194.325 146.046C194.258 146.046 194.191 146.046 194.125 146.046C193.525 145.579 193.058 145.112 192.725 144.646C192.458 144.112 192.258 143.579 192.125 143.046C191.791 142.712 191.558 142.346 191.425 141.946C191.291 141.546 191.158 141.212 191.025 140.946C190.891 140.012 190.891 139.046 191.025 138.046C191.025 137.112 190.925 136.312 190.725 135.646C190.525 134.979 190.258 134.246 189.925 133.446C189.858 132.646 189.658 132.046 189.325 131.646C189.191 131.446 189.058 131.246 188.925 131.046C188.858 130.779 188.791 130.546 188.725 130.346C188.391 130.279 188.091 130.246 187.825 130.246C187.625 130.179 187.358 130.146 187.025 130.146C186.691 130.146 186.358 130.146 186.025 130.146C185.758 130.146 185.458 130.112 185.125 130.046C184.791 129.979 184.525 129.946 184.325 129.946C184.125 129.946 183.891 129.946 183.625 129.946H183.025C182.425 129.946 181.858 129.879 181.325 129.746C180.258 129.546 179.225 129.446 178.225 129.446H176.825C176.558 129.379 176.291 129.346 176.025 129.346C175.891 129.346 175.791 129.346 175.725 129.346H173.425C172.825 129.346 172.258 129.446 171.725 129.646C171.391 129.912 171.125 130.079 170.925 130.146C170.791 130.212 170.658 130.279 170.525 130.346C170.258 130.412 169.958 130.512 169.625 130.646C169.358 130.712 169.125 130.912 168.925 131.246C168.525 131.912 168.391 132.479 168.525 132.946C168.658 133.146 168.625 133.412 168.425 133.746C168.558 134.479 168.558 135.279 168.425 136.146C168.358 136.946 168.258 137.712 168.125 138.446C168.325 139.112 168.391 139.746 168.325 140.346C168.125 141.012 168.025 141.679 168.025 142.346C167.691 143.146 167.191 143.779 166.525 144.246C165.925 144.712 165.258 145.179 164.525 145.646C163.458 145.779 162.791 146.112 162.525 146.646C162.058 146.646 161.725 146.579 161.525 146.446C161.391 146.312 161.158 146.246 160.825 146.246H160.425C160.158 146.446 159.858 146.546 159.525 146.546C159.258 146.546 158.958 146.446 158.625 146.246C158.291 146.112 158.025 145.979 157.825 145.846C157.558 145.712 157.258 145.579 156.925 145.446C156.925 145.312 156.858 144.979 156.725 144.446C156.658 144.312 156.625 144.179 156.625 144.046C156.558 143.912 156.458 143.779 156.325 143.646C155.991 142.979 155.958 142.446 156.225 142.046C156.425 141.579 156.458 141.046 156.325 140.446C156.325 139.646 156.458 139.012 156.725 138.546C156.925 138.012 157.191 137.479 157.525 136.946C157.925 135.812 158.191 135.079 158.325 134.746C158.525 134.412 158.691 134.179 158.825 134.046C159.091 133.779 159.191 133.446 159.125 133.046C159.658 132.112 160.058 131.512 160.325 131.246C160.591 130.846 160.791 130.479 160.925 130.146C160.791 129.679 160.658 129.346 160.525 129.146C160.458 128.879 160.325 128.512 160.125 128.046C159.925 127.779 159.825 127.346 159.825 126.746C159.825 126.612 159.825 126.346 159.825 125.946C159.891 125.479 159.991 125.179 160.125 125.046C160.458 124.446 160.825 124.012 161.225 123.746C161.425 123.679 161.658 123.512 161.925 123.246C162.058 122.712 162.191 122.179 162.325 121.646C162.525 121.112 162.625 120.579 162.625 120.046C162.691 119.712 162.725 119.412 162.725 119.146C162.791 118.879 162.791 118.579 162.725 118.246C162.658 117.779 162.858 117.312 163.325 116.846C163.658 116.312 163.891 115.879 164.025 115.546C163.958 115.212 163.991 114.846 164.125 114.446C164.325 114.046 164.525 113.679 164.725 113.346C164.858 112.812 164.991 112.279 165.125 111.746C165.258 111.146 165.425 110.612 165.625 110.146C165.625 109.879 165.725 109.612 165.925 109.346C166.058 109.079 166.058 108.846 165.925 108.646C166.058 108.312 166.158 107.979 166.225 107.646C166.358 107.246 166.458 106.846 166.525 106.446C166.591 106.112 166.658 105.779 166.725 105.446C166.791 105.112 166.925 104.779 167.125 104.446C167.191 104.246 167.225 103.979 167.225 103.646C167.225 103.179 167.258 102.846 167.325 102.646C167.458 102.379 167.591 102.146 167.725 101.946C168.125 101.679 168.325 101.312 168.325 100.846L168.925 99.4456V97.8456C168.591 97.5789 168.491 97.0456 168.625 96.2456C168.758 96.0456 168.758 95.7122 168.625 95.2456C169.025 94.5789 169.325 93.8789 169.525 93.1455C169.725 92.3456 169.891 91.5456 170.025 90.7456C170.025 90.4122 169.958 90.0456 169.825 89.6456L169.525 88.8456C169.191 88.6455 168.991 88.3789 168.925 88.0455C168.858 87.7122 168.758 87.3789 168.625 87.0456C168.825 86.5789 168.958 86.1789 169.025 85.8456C169.091 85.6456 169.158 85.5122 169.225 85.4456C169.358 85.3122 169.491 85.1789 169.625 85.0456C169.691 84.7122 169.791 84.4789 169.925 84.3455C170.058 84.2122 170.291 84.0456 170.625 83.8455C170.758 83.1789 171.058 82.8122 171.525 82.7456C172.058 82.6122 172.691 82.5122 173.425 82.4455C173.825 82.3122 174.025 82.2122 174.025 82.1456C174.225 82.0789 174.391 82.0122 174.525 81.9456C174.658 81.8789 174.791 81.8789 174.925 81.9456C175.058 82.0122 175.325 82.0455 175.725 82.0455C176.258 81.7789 176.725 81.5789 177.125 81.4456C177.525 81.3122 177.891 81.2456 178.225 81.2456C178.358 81.2456 178.691 81.3122 179.225 81.4456C179.958 81.7122 180.658 81.8789 181.325 81.9456C181.591 82.0789 181.925 82.2122 182.325 82.3456C183.058 82.9456 183.625 83.7122 184.025 84.6456C184.158 85.3122 184.191 85.9456 184.125 86.5456C184.058 87.0789 183.958 87.6456 183.825 88.2456C183.825 88.7789 183.858 89.2789 183.925 89.7456C183.991 90.1455 184.091 90.5122 184.225 90.8455C184.291 91.1789 184.358 91.4455 184.425 91.6456C184.491 91.8456 184.558 92.0122 184.625 92.1456C184.691 92.6789 184.758 93.0456 184.825 93.2456C184.891 93.3789 184.991 93.5456 185.125 93.7456C185.191 93.8789 185.225 94.1122 185.225 94.4456C185.225 94.9789 185.358 95.3789 185.625 95.6456C185.691 95.7789 185.758 95.9122 185.825 96.0456C185.891 96.1789 185.925 96.3122 185.925 96.4456C185.991 97.5122 186.258 98.2122 186.725 98.5456C186.858 99.0789 187.025 99.4122 187.225 99.5456C187.491 100.279 187.658 100.912 187.725 101.446C187.791 102.046 187.958 102.712 188.225 103.446L188.925 104.646C188.991 104.779 189.058 104.946 189.125 105.146C189.191 105.279 189.258 105.412 189.325 105.546C189.458 105.679 189.525 105.846 189.525 106.046C189.591 106.179 189.658 106.312 189.725 106.446C189.725 107.046 189.758 107.379 189.825 107.446C189.891 107.712 190.025 108.212 190.225 108.946C190.425 109.679 190.591 110.146 190.725 110.346C190.725 110.679 190.791 110.912 190.925 111.046C190.991 111.246 191.025 111.512 191.025 111.846C191.291 112.312 191.525 112.746 191.725 113.146C191.925 113.479 192.125 113.779 192.325 114.046C192.725 114.579 193.025 115.212 193.225 115.946C193.625 116.346 193.858 116.812 193.925 117.346C194.258 118.146 194.425 118.512 194.425 118.446C194.425 118.779 194.458 119.046 194.525 119.246C194.591 119.379 194.658 119.512 194.725 119.646C194.858 120.046 194.925 120.346 194.925 120.546C195.058 121.212 195.158 121.612 195.225 121.746C195.425 122.479 195.491 122.946 195.425 123.146C195.291 123.546 195.291 123.912 195.425 124.246L195.625 125.246ZM177.025 100.946C176.691 101.279 176.458 101.646 176.325 102.046C176.258 102.446 176.225 102.879 176.225 103.346L175.625 104.646C175.558 104.912 175.525 105.412 175.525 106.146C175.391 106.812 175.258 107.346 175.125 107.746C174.658 108.612 174.425 109.579 174.425 110.646C174.491 111.512 174.391 112.046 174.125 112.246L173.625 113.746C173.558 114.079 173.458 114.479 173.325 114.946C173.258 115.412 173.125 115.912 172.925 116.446L172.325 117.746C172.125 118.212 172.025 118.646 172.025 119.046C172.025 119.312 172.025 119.546 172.025 119.746C172.091 119.946 172.158 120.179 172.225 120.446C172.558 120.712 172.758 121.012 172.825 121.346C172.891 121.679 173.258 121.912 173.925 122.046C174.458 122.246 174.825 122.479 175.025 122.746C175.158 122.946 175.358 123.112 175.625 123.246C175.891 123.312 176.091 123.346 176.225 123.346C176.758 123.412 177.158 123.512 177.425 123.646C177.558 123.712 177.691 123.779 177.825 123.846C177.958 123.846 178.125 123.879 178.325 123.946H180.025C180.225 123.879 180.525 123.846 180.925 123.846C181.258 123.846 181.525 123.879 181.725 123.946C181.991 123.812 182.325 123.746 182.725 123.746C183.058 123.746 183.425 123.646 183.825 123.446C184.625 123.446 185.125 123.146 185.325 122.546C185.458 122.212 185.458 121.779 185.325 121.246V119.946C185.191 119.612 185.058 119.279 184.925 118.946C184.791 118.612 184.725 118.279 184.725 117.946C184.658 117.412 184.391 116.812 183.925 116.146C183.791 115.612 183.625 115.179 183.425 114.846C183.291 114.446 183.158 114.146 183.025 113.946C182.691 113.546 182.491 113.079 182.425 112.546C182.291 111.746 182.158 111.212 182.025 110.946C181.958 110.679 181.925 110.279 181.925 109.746C181.925 109.546 181.858 109.312 181.725 109.046C181.658 108.912 181.591 108.779 181.525 108.646C181.525 108.512 181.491 108.346 181.425 108.146C181.158 108.012 181.025 107.812 181.025 107.546C180.891 107.146 180.825 106.879 180.825 106.746C180.491 105.746 180.258 104.679 180.125 103.546C180.058 102.679 179.691 101.879 179.025 101.146C178.491 101.146 178.125 101.112 177.925 101.046C177.791 100.979 177.491 100.946 177.025 100.946ZM192.125 101.146C191.391 100.479 190.925 99.8789 190.725 99.3456C190.591 98.7456 190.591 98.2122 190.725 97.7456C191.125 97.0122 191.591 96.5122 192.125 96.2456C192.525 96.3789 192.791 96.5122 192.925 96.6456C193.125 96.7122 193.291 96.7456 193.425 96.7456C193.625 97.1456 193.858 97.5456 194.125 97.9456C194.391 98.3456 194.458 98.7789 194.325 99.2456C194.058 99.5789 193.758 99.8789 193.425 100.146C193.291 100.279 193.191 100.412 193.125 100.546C193.125 100.612 193.091 100.679 193.025 100.746C192.825 100.946 192.525 101.079 192.125 101.146ZM193.925 102.946C194.258 103.279 194.391 103.712 194.325 104.246C194.258 104.712 193.991 104.979 193.525 105.046C193.058 105.112 192.658 104.946 192.325 104.546C192.058 104.079 192.091 103.579 192.425 103.046C192.625 102.979 192.891 102.946 193.225 102.946H193.925ZM205.891 128.646L206.091 128.546C206.624 129.546 206.791 130.379 206.591 131.046C206.391 131.646 205.958 132.046 205.291 132.246C204.491 132.112 203.991 131.646 203.791 130.846C203.591 129.979 203.724 129.379 204.191 129.046C204.391 128.979 204.691 128.812 205.091 128.546C205.158 128.479 205.258 128.446 205.391 128.446C205.591 128.446 205.758 128.512 205.891 128.646ZM217.291 143.646C216.624 143.779 216.158 143.846 215.891 143.846C215.158 143.846 214.724 143.646 214.591 143.246C214.458 142.979 214.424 142.679 214.491 142.346C214.558 142.012 214.658 141.746 214.791 141.546C215.324 141.146 215.658 140.779 215.791 140.446C216.324 139.846 216.958 139.546 217.691 139.546C218.158 139.546 218.491 139.679 218.691 139.946C218.958 140.346 218.991 140.712 218.791 141.046C218.391 142.046 217.991 142.746 217.591 143.146L217.291 143.646ZM221.091 135.346C221.424 135.879 221.391 136.379 220.991 136.846C220.658 137.246 220.224 137.446 219.691 137.446C219.424 137.446 219.224 137.412 219.091 137.346C218.891 136.812 218.891 136.412 219.091 136.146C219.291 135.812 219.491 135.546 219.691 135.346C219.958 135.346 220.191 135.312 220.391 135.246C220.658 135.246 220.891 135.279 221.091 135.346ZM232.091 133.346L233.091 134.746C233.091 134.812 233.124 134.912 233.191 135.046C233.324 135.246 233.458 135.479 233.591 135.746C233.924 136.212 234.091 136.546 234.091 136.746C234.224 137.079 234.391 137.312 234.591 137.446C234.724 137.579 234.858 137.712 234.991 137.846C235.191 137.912 235.358 138.112 235.491 138.446C235.558 138.712 235.724 138.912 235.991 139.046C236.591 139.379 236.891 139.612 236.891 139.746C237.024 139.946 237.191 140.112 237.391 140.246C237.924 140.779 238.824 141.112 240.091 141.246C240.424 141.112 240.591 141.246 240.591 141.646C240.591 141.979 240.791 142.212 241.191 142.346C241.324 142.412 241.458 142.479 241.591 142.546C241.724 142.546 241.858 142.612 241.991 142.746C242.324 143.079 242.524 143.312 242.591 143.446C242.724 143.579 242.858 143.712 242.991 143.846C243.191 144.046 243.358 144.279 243.491 144.546C243.491 144.946 243.424 145.312 243.291 145.646C243.158 146.046 243.024 146.412 242.891 146.746C242.958 147.279 242.824 147.746 242.491 148.146C242.158 148.546 241.791 148.912 241.391 149.246C241.124 149.779 240.758 150.046 240.291 150.046L238.691 150.646C238.024 150.646 237.691 150.679 237.691 150.746C237.291 150.679 236.958 150.612 236.691 150.546C236.491 150.546 236.191 150.546 235.791 150.546C235.391 150.546 235.124 150.379 234.991 150.046C234.391 150.046 234.091 149.879 234.091 149.546H233.891C233.558 149.546 233.324 149.346 233.191 148.946C232.991 148.346 232.758 147.979 232.491 147.846C232.691 147.379 232.658 147.012 232.391 146.746C232.124 146.679 231.824 146.479 231.491 146.146C231.424 145.879 231.358 145.679 231.291 145.546C231.224 145.412 231.191 145.279 231.191 145.146C230.924 144.612 230.724 144.246 230.591 144.046C230.524 143.779 230.424 143.546 230.291 143.346C230.091 143.012 229.891 142.646 229.691 142.246C229.558 141.779 229.424 141.446 229.291 141.246L228.691 140.046C228.491 139.846 228.358 139.646 228.291 139.446C228.091 139.112 227.958 138.812 227.891 138.546C227.824 138.279 227.758 138.079 227.691 137.946C227.624 137.812 227.558 137.712 227.491 137.646C227.424 137.512 227.358 137.379 227.291 137.246C226.958 136.912 226.758 136.712 226.691 136.646C226.624 136.579 226.491 136.146 226.291 135.346C226.091 135.212 225.924 134.912 225.791 134.446C225.658 133.912 225.458 133.646 225.191 133.646C224.858 132.779 224.558 131.979 224.291 131.246C224.024 130.446 223.558 129.779 222.891 129.246C222.758 129.112 222.624 128.946 222.491 128.746C222.424 128.546 222.324 128.279 222.191 127.946C221.991 127.479 221.624 127.246 221.091 127.246L220.591 127.946L220.491 128.546C220.491 128.679 220.358 128.879 220.091 129.146C219.758 129.679 219.558 130.079 219.491 130.346C219.424 130.546 219.358 130.712 219.291 130.846C219.224 131.046 219.124 131.246 218.991 131.446C218.924 131.579 218.824 131.712 218.691 131.846C218.624 132.246 218.391 132.646 217.991 133.046C217.724 133.312 217.358 133.779 216.891 134.446C216.491 135.112 216.291 135.612 216.291 135.946C215.691 136.546 215.391 137.012 215.391 137.346C215.391 137.679 215.124 137.912 214.591 138.046C214.324 138.512 214.124 138.912 213.991 139.246C213.858 139.579 213.691 139.846 213.491 140.046C213.291 140.246 213.091 140.446 212.891 140.646C212.691 140.846 212.491 141.112 212.291 141.446C212.158 141.779 212.091 142.179 212.091 142.646C212.091 143.046 211.991 143.446 211.791 143.846C211.591 144.046 211.424 144.412 211.291 144.946C211.224 145.279 210.958 145.612 210.491 145.946C210.024 146.279 209.624 146.546 209.291 146.746C209.158 146.812 208.924 146.846 208.591 146.846C208.391 146.846 208.224 146.812 208.091 146.746C207.958 146.746 207.824 146.746 207.691 146.746C207.558 146.746 207.424 146.779 207.291 146.846C206.758 146.779 206.391 146.646 206.191 146.446C205.991 146.246 205.824 146.079 205.691 145.946C205.358 145.946 205.091 145.779 204.891 145.446C204.691 145.112 204.424 144.912 204.091 144.846C203.624 143.779 203.224 143.146 202.891 142.946L202.391 142.046C202.324 141.779 202.291 141.579 202.291 141.446C202.358 141.246 202.358 141.079 202.291 140.946C202.224 140.746 202.191 140.579 202.191 140.446C202.258 140.246 202.291 140.079 202.291 139.946V138.846C202.224 138.379 202.324 138.012 202.591 137.746C202.858 137.679 203.058 137.446 203.191 137.046C203.591 136.912 204.024 136.746 204.491 136.546C204.958 136.346 205.358 136.146 205.691 135.946L206.591 135.646C207.124 134.979 207.424 134.579 207.491 134.446C207.558 134.379 207.758 134.246 208.091 134.046C208.691 133.579 209.024 133.112 209.091 132.646C209.158 132.179 209.391 131.679 209.791 131.146C210.058 130.746 210.224 130.412 210.291 130.146C210.424 129.879 210.558 129.646 210.691 129.446C210.958 128.712 211.258 127.979 211.591 127.246C211.991 126.512 212.458 125.879 212.991 125.346C213.458 124.679 213.724 124.212 213.791 123.946C213.858 123.812 213.924 123.712 213.991 123.646C214.124 123.512 214.258 123.379 214.391 123.246C214.724 122.579 214.991 121.946 215.191 121.346C215.458 120.679 215.758 120.012 216.091 119.346C215.958 118.812 215.891 118.379 215.891 118.046L215.591 116.746C214.791 115.812 213.991 114.879 213.191 113.946C212.391 112.946 211.791 111.679 211.391 110.146C211.258 110.079 211.124 109.879 210.991 109.546C210.858 109.212 210.724 108.912 210.591 108.646C210.524 108.312 210.424 108.046 210.291 107.846C209.958 107.512 209.758 107.246 209.691 107.046C209.091 106.779 208.524 106.646 207.991 106.646C207.591 106.646 207.291 106.812 207.091 107.146C207.024 107.212 206.891 107.246 206.691 107.246C206.358 107.246 206.058 107.046 205.791 106.646C205.524 106.246 205.324 105.812 205.191 105.346V104.846C204.524 103.912 204.124 103.379 203.991 103.246C203.658 103.046 203.491 102.679 203.491 102.146C203.491 101.679 203.624 101.312 203.891 101.046L204.191 99.9456C204.791 99.2122 205.291 98.7122 205.691 98.4456C206.158 98.1122 206.624 97.8789 207.091 97.7456C207.558 97.6122 207.991 97.4789 208.391 97.3456C208.858 97.2122 209.291 97.0789 209.691 96.9456C209.891 96.9456 210.191 97.0122 210.591 97.1456C211.058 97.2122 211.524 97.3456 211.991 97.5456C212.458 97.6789 212.858 97.8789 213.191 98.1456C213.591 98.3456 213.858 98.5456 213.991 98.7456C214.524 99.8789 214.791 100.479 214.791 100.546C215.058 101.346 215.191 101.812 215.191 101.946C215.724 102.679 216.024 103.246 216.091 103.646C216.158 103.979 216.358 104.312 216.691 104.646C217.024 104.846 217.258 105.246 217.391 105.846C217.991 106.512 218.324 107.412 218.391 108.546C218.591 108.879 218.758 109.179 218.891 109.446C219.024 109.712 219.158 109.912 219.291 110.046C219.424 110.446 219.591 110.879 219.791 111.346L220.291 112.146C220.424 112.479 220.558 112.846 220.691 113.246C220.758 113.446 220.824 113.612 220.891 113.746C220.958 113.879 221.058 114.012 221.191 114.146C221.591 114.012 221.858 113.812 221.991 113.546C222.124 113.412 222.224 113.312 222.291 113.246C222.424 113.179 222.558 113.079 222.691 112.946C222.958 112.546 223.124 112.112 223.191 111.646C223.324 111.179 223.424 110.712 223.491 110.246C223.691 109.712 223.891 109.346 224.091 109.146C224.291 108.879 224.491 108.646 224.691 108.446C224.691 108.112 224.791 107.812 224.991 107.546L225.391 106.846C225.524 106.512 225.691 106.246 225.891 106.046C226.091 105.846 226.258 105.679 226.391 105.546C226.591 104.879 226.824 104.312 227.091 103.846C227.358 103.312 227.658 102.846 227.991 102.446C228.324 101.512 228.658 100.846 228.991 100.446C229.258 100.046 229.458 99.7122 229.591 99.4456C229.724 99.1789 229.858 98.9456 229.991 98.7456C230.124 98.3456 230.291 97.9456 230.491 97.5456C231.024 96.8789 231.524 96.3122 231.991 95.8456C232.458 95.3122 233.024 94.8122 233.691 94.3456C234.024 94.4789 234.324 94.5455 234.591 94.5455C234.858 94.5455 235.124 94.5455 235.391 94.5455C235.858 94.5455 236.324 94.7455 236.791 95.1456C237.324 95.4789 237.558 95.6456 237.491 95.6456C237.824 95.9122 238.058 96.1122 238.191 96.2456C238.391 96.3122 238.558 96.3789 238.691 96.4456C239.024 96.9122 239.258 97.2122 239.391 97.3456C239.591 97.4789 239.758 97.5789 239.891 97.6456C240.224 97.7789 240.391 98.0122 240.391 98.3456C240.391 98.6789 240.358 98.9456 240.291 99.1456C240.224 99.4122 240.158 99.6789 240.091 99.9456C240.024 100.146 240.024 100.312 240.091 100.446C239.958 101.179 239.858 101.679 239.791 101.946C239.724 102.212 239.658 102.412 239.591 102.546C239.324 102.946 239.191 103.246 239.191 103.446C238.658 103.512 238.291 103.779 238.091 104.246C237.024 104.712 236.324 105.346 235.991 106.146C235.791 106.612 235.558 107.079 235.291 107.546C235.091 108.012 234.824 108.479 234.491 108.946C234.158 109.279 233.924 109.546 233.791 109.746C233.724 109.946 233.624 110.312 233.491 110.846C232.958 111.379 232.458 111.912 231.991 112.446C231.524 112.979 230.958 113.479 230.291 113.946C230.224 114.212 230.058 114.379 229.791 114.446C229.258 114.646 228.991 115.179 228.991 116.046C228.991 116.446 228.858 116.679 228.591 116.746C228.458 117.279 228.324 117.579 228.191 117.646C227.924 117.712 227.791 117.979 227.791 118.446C227.591 118.646 227.424 118.846 227.291 119.046C227.158 119.246 227.024 119.446 226.891 119.646C226.624 120.246 226.358 120.646 226.091 120.846C226.024 120.979 225.991 121.146 225.991 121.346C226.058 121.479 226.091 121.612 226.091 121.746C226.158 122.012 226.191 122.246 226.191 122.446C226.258 122.646 226.291 122.846 226.291 123.046C226.291 123.312 226.458 123.812 226.791 124.546C227.191 125.279 227.491 125.712 227.691 125.846C227.824 126.246 227.891 126.579 227.891 126.846C228.158 126.979 228.324 127.146 228.391 127.346C228.458 127.479 228.524 127.612 228.591 127.746C228.791 128.079 228.958 128.379 229.091 128.646C229.224 128.912 229.358 129.146 229.491 129.346C229.491 129.812 229.758 130.112 230.291 130.246C230.424 130.579 230.558 130.879 230.691 131.146C230.891 131.346 231.058 131.612 231.191 131.946C231.391 132.479 231.691 132.946 232.091 133.346ZM229.191 123.146L229.491 122.646C229.224 122.312 229.258 122.012 229.591 121.746C229.924 121.479 230.258 121.346 230.591 121.346C230.658 121.346 230.691 121.379 230.691 121.446C230.758 121.446 230.824 121.446 230.891 121.446C231.424 121.779 231.491 122.312 231.091 123.046C230.691 123.779 230.191 124.079 229.591 123.946C229.458 123.879 229.324 123.612 229.191 123.146ZM213.691 91.6456L213.891 92.1456C213.758 92.6122 213.624 92.9122 213.491 93.0456L212.791 93.8456C212.658 93.7789 212.524 93.7456 212.391 93.7456C212.324 93.7456 212.224 93.7122 212.091 93.6455C211.758 93.6455 211.524 93.6122 211.391 93.5455C210.858 92.8122 210.724 92.3122 210.991 92.0456C211.258 91.7122 211.558 91.4456 211.891 91.2455C212.024 91.1789 212.258 91.1456 212.591 91.1456C213.058 91.1456 213.424 91.3122 213.691 91.6456ZM217.991 97.5456C218.791 97.6789 219.291 98.0789 219.491 98.7456C219.758 99.3456 219.824 100.012 219.691 100.746C219.491 100.812 219.191 101.046 218.791 101.446C218.458 101.779 218.191 101.946 217.991 101.946C217.858 101.946 217.758 101.946 217.691 101.946C217.691 101.879 217.658 101.846 217.591 101.846C216.724 101.312 216.358 100.812 216.491 100.346C216.624 99.9456 216.624 99.4789 216.491 98.9456C216.824 98.6122 217.024 98.2789 217.091 97.9456C217.224 97.6789 217.524 97.5456 217.991 97.5456ZM237.191 113.546C236.858 113.546 236.624 113.579 236.491 113.646C236.424 113.712 236.324 113.746 236.191 113.746C235.791 113.746 235.558 113.512 235.491 113.046C235.291 112.512 235.324 111.846 235.591 111.046C235.724 110.646 235.791 110.379 235.791 110.246C235.924 110.179 236.058 110.112 236.191 110.046C236.391 109.912 236.591 109.779 236.791 109.646C236.991 109.446 237.224 109.346 237.491 109.346C237.824 109.346 238.158 109.612 238.491 110.146C238.624 110.279 238.691 110.412 238.691 110.546C238.758 110.679 238.824 110.812 238.891 110.946C239.091 111.546 238.924 112.046 238.391 112.446C238.124 112.646 237.891 112.846 237.691 113.046C237.491 113.246 237.324 113.412 237.191 113.546ZM269.49 98.4456C270.024 98.5122 270.39 98.6122 270.59 98.7456C270.79 98.8122 270.99 98.9122 271.19 99.0456C271.657 99.0456 272.09 99.1789 272.49 99.4456C272.624 99.5122 272.724 99.5789 272.79 99.6456C272.857 99.7122 272.957 99.8122 273.09 99.9456C273.424 100.412 273.89 100.812 274.49 101.146C274.757 101.279 274.924 101.446 274.99 101.646C275.124 101.846 275.257 102.012 275.39 102.146C275.724 102.546 275.957 102.812 276.09 102.946C276.29 103.079 276.524 103.179 276.79 103.246C276.924 103.379 277.057 103.512 277.19 103.646C277.39 103.779 277.557 103.912 277.69 104.046C278.29 104.179 278.59 104.312 278.59 104.446C279.124 104.779 279.39 104.946 279.39 104.946V105.146C279.924 105.279 280.324 105.479 280.59 105.746C280.724 105.879 280.857 106.012 280.99 106.146C281.19 106.279 281.39 106.412 281.59 106.546C281.857 106.879 282.324 107.212 282.99 107.546C283.457 108.346 283.924 108.946 284.39 109.346C284.924 109.812 285.357 110.412 285.69 111.146L286.19 111.846C286.39 112.446 286.624 113.046 286.89 113.646C287.224 114.179 287.59 114.679 287.99 115.146C288.257 115.812 288.39 116.279 288.39 116.546C288.59 116.879 288.757 117.246 288.89 117.646C289.024 117.979 289.024 118.312 288.89 118.646C289.157 118.979 289.29 119.512 289.29 120.246C289.157 120.779 289.224 121.212 289.49 121.546C289.424 121.879 289.39 122.112 289.39 122.246C289.39 122.379 289.39 122.512 289.39 122.646L289.09 124.846C288.757 125.512 288.457 126.246 288.19 127.046C288.19 127.379 288.157 127.779 288.09 128.246C288.09 128.646 287.924 128.979 287.59 129.246V129.846C287.324 130.379 287.124 130.812 286.99 131.146C286.924 131.412 286.824 131.679 286.69 131.946C286.557 132.279 286.424 132.579 286.29 132.846C286.224 133.112 286.124 133.412 285.99 133.746L285.59 134.746C285.457 135.012 285.324 135.212 285.19 135.346C284.99 135.546 284.757 135.846 284.49 136.246C284.224 136.579 284.09 136.846 284.09 137.046C283.957 137.379 283.69 137.712 283.29 138.046C283.09 138.246 282.957 138.446 282.89 138.646C282.49 139.112 282.057 139.512 281.59 139.846C281.19 140.112 280.79 140.379 280.39 140.646C279.59 141.112 278.824 141.679 278.09 142.346C276.624 143.412 275.69 144.012 275.29 144.146C274.557 144.479 273.924 144.812 273.39 145.146C272.924 145.146 272.557 145.212 272.29 145.346C271.89 145.546 271.457 145.646 270.99 145.646C270.857 145.712 270.557 145.746 270.09 145.746H269.59C269.257 145.746 268.957 145.746 268.69 145.746C268.424 145.746 268.19 145.779 267.99 145.846C267.657 145.779 267.357 145.746 267.09 145.746C266.824 145.746 266.624 145.712 266.49 145.646C266.157 145.646 265.924 145.546 265.79 145.346C265.257 145.346 264.89 145.246 264.69 145.046C264.29 144.846 263.824 144.746 263.29 144.746C263.224 144.746 263.157 144.746 263.09 144.746C263.09 144.812 263.024 144.846 262.89 144.846C262.757 144.846 262.624 144.779 262.49 144.646C262.29 144.846 262.09 144.946 261.89 144.946C261.824 144.946 261.757 144.912 261.69 144.846C261.69 144.846 261.657 144.846 261.59 144.846C261.324 144.712 261.024 144.646 260.69 144.646L259.99 144.346C259.657 144.146 259.457 144.012 259.39 143.946C258.524 143.879 257.924 143.612 257.59 143.146L256.79 142.846C255.924 142.446 255.357 142.112 255.09 141.846C254.757 141.446 254.324 141.212 253.79 141.146C253.324 140.612 252.99 140.279 252.79 140.146C252.657 139.946 252.557 139.779 252.49 139.646C252.357 139.379 252.19 139.146 251.99 138.946L251.29 138.346C250.957 138.012 250.69 137.812 250.49 137.746C250.357 137.479 250.224 137.279 250.09 137.146C250.024 137.012 249.924 136.879 249.79 136.746C249.59 136.546 249.49 136.312 249.49 136.046C249.357 136.046 249.19 135.946 248.99 135.746C248.79 135.546 248.757 135.379 248.89 135.246C248.557 135.046 248.257 134.712 247.99 134.246C247.79 133.779 247.657 133.279 247.59 132.746C247.257 131.812 246.99 131.146 246.79 130.746C246.657 130.279 246.524 129.879 246.39 129.546C246.257 129.212 246.124 128.912 245.99 128.646C245.924 128.312 245.824 127.979 245.69 127.646C245.424 127.312 245.157 126.812 244.89 126.146C244.624 125.412 244.69 124.746 245.09 124.146C244.957 123.746 244.924 123.479 244.99 123.346C245.057 123.146 245.024 122.912 244.89 122.646C245.024 122.246 245.057 121.846 244.99 121.446C244.924 121.179 244.89 120.779 244.89 120.246C244.89 119.712 244.957 119.246 245.09 118.846C245.224 118.446 245.39 118.046 245.59 117.646C245.724 116.979 245.89 116.346 246.09 115.746C246.29 115.079 246.557 114.479 246.89 113.946C247.024 113.612 247.257 113.379 247.59 113.246C247.524 112.979 247.59 112.746 247.79 112.546C247.99 112.346 248.124 112.146 248.19 111.946C248.257 111.279 248.457 110.746 248.79 110.346C249.124 109.946 249.457 109.479 249.79 108.946C249.857 108.412 250.024 107.912 250.29 107.446C250.624 107.112 250.79 106.646 250.79 106.046C251.057 105.912 251.29 105.746 251.49 105.546C251.757 105.346 251.857 105.079 251.79 104.746C252.324 104.346 252.757 103.846 253.09 103.246C253.624 102.846 254.024 102.579 254.29 102.446C254.69 102.112 255.124 101.779 255.59 101.446C256.124 101.046 256.457 100.746 256.59 100.546C257.124 100.146 257.524 99.9456 257.79 99.9456C258.79 99.5456 259.29 99.3456 259.29 99.3456L260.19 99.2456C260.924 99.1122 261.49 99.0122 261.89 98.9456C262.29 98.8789 262.69 98.7789 263.09 98.6456C263.49 98.6456 263.857 98.6789 264.19 98.7456C264.524 98.7456 264.857 98.8122 265.19 98.9456C265.324 98.9456 265.59 98.8789 265.99 98.7456C266.057 98.6789 266.157 98.6456 266.29 98.6456C266.49 98.6456 266.657 98.6789 266.79 98.7456C267.524 98.6122 268.024 98.5789 268.29 98.6456C268.624 98.6456 268.857 98.6456 268.99 98.6456L269.49 98.4456ZM280.99 123.046L280.89 122.846C280.89 122.379 280.724 121.812 280.39 121.146C280.057 120.412 279.924 119.812 279.99 119.346C279.79 119.012 279.59 118.679 279.39 118.346C279.19 117.946 279.09 117.512 279.09 117.046L278.49 116.146C278.224 115.879 278.157 115.546 278.29 115.146C278.157 114.879 278.057 114.646 277.99 114.446C277.99 114.246 277.99 113.979 277.99 113.646V112.846L277.89 112.746C277.757 112.412 277.624 112.146 277.49 111.946C277.424 111.746 277.224 111.579 276.89 111.446H275.79C275.39 111.312 275.09 111.246 274.89 111.246C274.757 111.246 274.624 111.212 274.49 111.146C274.224 111.012 274.024 110.812 273.89 110.546C273.624 110.279 273.357 110.046 273.09 109.846C272.89 109.646 272.69 109.512 272.49 109.446C272.09 109.312 271.824 109.012 271.69 108.546C271.424 108.412 271.09 108.212 270.69 107.946C270.357 107.746 270.09 107.479 269.89 107.146C269.424 106.879 269.124 106.646 268.99 106.446C268.59 106.246 268.224 106.146 267.89 106.146C267.757 106.146 267.657 106.179 267.59 106.246C267.524 106.246 267.457 106.246 267.39 106.246C266.857 106.446 266.39 106.646 265.99 106.846C265.59 107.046 265.224 107.146 264.89 107.146C264.224 107.146 263.724 107.479 263.39 108.146C263.057 108.279 262.724 108.412 262.39 108.546C262.057 108.679 261.724 108.779 261.39 108.846C261.057 108.979 260.724 109.146 260.39 109.346C260.124 109.479 259.89 109.712 259.69 110.046C258.757 110.579 257.857 110.979 256.99 111.246C256.524 111.579 256.09 111.879 255.69 112.146C255.29 112.346 254.857 112.546 254.39 112.746C254.057 113.012 253.59 113.512 252.99 114.246C252.457 114.979 252.057 115.546 251.79 115.946L251.49 116.946C251.424 117.146 251.39 117.346 251.39 117.546C251.39 117.679 251.357 117.812 251.29 117.946C251.357 118.946 251.457 119.512 251.59 119.646C251.79 120.712 251.99 121.612 252.19 122.346C252.457 123.079 252.757 123.779 253.09 124.446C253.49 124.712 253.69 124.979 253.69 125.246C254.224 125.446 254.59 125.979 254.79 126.846C255.257 127.179 255.657 127.512 255.99 127.846C256.39 128.179 256.69 128.612 256.89 129.146C257.357 129.346 257.724 129.946 257.99 130.946L258.69 131.946C259.357 132.279 259.89 132.679 260.29 133.146C260.757 133.612 261.224 134.179 261.69 134.846C262.69 135.446 263.89 135.812 265.29 135.946C266.757 136.079 268.09 136.146 269.29 136.146C269.424 136.146 269.557 136.146 269.69 136.146C269.824 136.079 269.957 136.046 270.09 136.046C270.757 135.912 271.224 135.846 271.49 135.846C271.69 135.712 271.857 135.612 271.99 135.546C272.19 135.412 272.357 135.279 272.49 135.146C272.89 134.879 273.224 134.712 273.49 134.646C273.824 134.179 274.157 133.812 274.49 133.546C274.89 133.279 275.257 133.079 275.59 132.946L276.29 132.546C276.424 132.412 276.624 132.279 276.89 132.146C277.49 131.479 278.024 131.012 278.49 130.746C279.09 130.412 279.59 129.879 279.99 129.146C280.39 128.412 280.69 127.612 280.89 126.746C280.89 126.346 280.924 125.946 280.99 125.546C281.057 125.146 281.124 124.746 281.19 124.346C280.99 124.212 280.89 124.012 280.89 123.746C280.89 123.412 280.924 123.179 280.99 123.046ZM256.89 116.246L257.09 116.546C257.357 117.079 257.224 117.712 256.69 118.446C256.557 118.712 256.324 118.979 255.99 119.246C255.657 119.446 255.357 119.546 255.09 119.546C254.824 119.546 254.59 119.512 254.39 119.446C254.19 119.312 254.024 119.179 253.89 119.046C253.757 118.779 253.657 118.512 253.59 118.246C253.59 117.979 253.657 117.679 253.79 117.346C253.924 117.079 254.257 116.812 254.79 116.546C255.324 116.212 255.824 116.046 256.29 116.046C256.424 116.046 256.624 116.112 256.89 116.246ZM267.79 129.146L267.59 128.846C268.324 128.912 268.99 129.079 269.59 129.346C270.19 129.546 270.557 129.912 270.69 130.446C270.89 131.446 270.624 132.146 269.89 132.546C269.157 132.879 268.39 133.079 267.59 133.146C266.324 133.146 265.457 132.812 264.99 132.146C264.857 131.746 264.89 131.446 265.09 131.246C265.357 130.979 265.524 130.746 265.59 130.546L266.69 129.746C266.89 129.612 267.057 129.512 267.19 129.446C267.39 129.379 267.59 129.279 267.79 129.146ZM275.79 125.346C276.057 125.746 276.124 126.046 275.99 126.246C275.79 126.446 275.624 126.712 275.49 127.046C275.024 127.779 274.724 128.146 274.59 128.146C274.257 128.146 274.024 128.179 273.89 128.246C273.757 128.179 273.624 128.112 273.49 128.046C273.357 127.979 273.224 127.879 273.09 127.746C272.824 127.612 272.624 127.379 272.49 127.046C272.424 126.646 272.524 126.279 272.79 125.946L273.49 125.246C273.824 125.179 274.257 125.079 274.79 124.946C275.19 124.946 275.524 125.079 275.79 125.346ZM285.99 141.746C285.79 142.079 285.557 142.346 285.29 142.546C285.09 142.746 284.79 142.846 284.39 142.846C284.057 142.846 283.824 142.779 283.69 142.646C283.557 142.512 283.39 142.379 283.19 142.246C282.79 142.046 282.59 141.812 282.59 141.546C282.657 141.279 282.79 141.079 282.99 140.946C283.124 140.812 283.324 140.712 283.59 140.646C283.857 140.579 284.257 140.446 284.79 140.246C284.924 140.179 285.09 140.146 285.29 140.146C285.624 140.146 285.857 140.312 285.99 140.646V141.046C285.857 141.179 285.857 141.412 285.99 141.746ZM246.69 102.346C246.557 101.879 246.557 101.412 246.69 100.946C246.824 100.412 247.057 100.046 247.39 99.8456C247.924 99.0456 248.324 98.6456 248.59 98.6456C248.857 98.6456 249.09 98.5122 249.29 98.2456C249.824 98.3789 250.257 98.6456 250.59 99.0456C250.924 99.4456 251.057 99.9789 250.99 100.646C250.857 101.046 250.69 101.346 250.49 101.546C250.357 101.746 250.19 101.912 249.99 102.046C249.457 102.446 249.124 102.746 248.99 102.946C248.724 103.146 248.19 103.246 247.39 103.246L246.69 102.346ZM292.133 142.546H292.433C292.699 142.546 292.866 142.646 292.933 142.846C293.133 143.179 293.333 143.346 293.533 143.346C293.599 143.879 293.566 144.312 293.433 144.646C293.299 144.979 293.133 145.312 292.933 145.646C292.866 145.712 292.766 145.746 292.633 145.746C292.499 145.746 292.366 145.712 292.233 145.646L291.433 145.346C290.966 144.546 290.766 144.079 290.833 143.946C291.033 143.412 291.299 143.046 291.633 142.846L292.133 142.546ZM294.833 109.746C294.699 108.812 294.599 108.112 294.533 107.646C294.466 107.112 294.399 106.679 294.333 106.346C294.199 105.746 294.366 105.212 294.833 104.746C295.233 104.812 295.566 104.846 295.833 104.846C296.099 104.846 296.299 104.846 296.433 104.846C296.766 104.846 296.966 105.046 297.033 105.446C297.499 106.112 297.599 106.912 297.333 107.846C297.133 108.779 296.766 109.412 296.233 109.746H295.933C295.733 109.746 295.599 109.779 295.533 109.846C295.399 109.912 295.333 109.946 295.333 109.946C295.266 109.946 295.099 109.879 294.833 109.746ZM307.333 82.7456C307.533 83.4789 307.699 84.3455 307.833 85.3455C308.033 86.3456 307.933 87.2456 307.533 88.0455C307.533 88.3789 307.533 88.6789 307.533 88.9455C307.533 89.1456 307.499 89.4456 307.433 89.8455C306.899 90.3789 306.399 90.9456 305.933 91.5456C305.533 92.1456 305.399 92.9122 305.533 93.8456C305.333 94.5122 305.266 95.1789 305.333 95.8456C305.466 96.6456 305.466 97.3456 305.333 97.9456C305.333 98.8789 305.366 99.7789 305.433 100.646C305.499 101.512 305.633 102.312 305.833 103.046C305.966 103.779 306.066 104.512 306.133 105.246C306.199 105.979 306.199 106.779 306.133 107.646C306.199 108.246 306.233 108.746 306.233 109.146C306.299 109.479 306.499 109.746 306.833 109.946C306.766 110.212 306.766 110.546 306.833 110.946C306.966 111.346 306.866 111.646 306.533 111.846L306.833 112.646C306.833 112.979 306.899 113.212 307.033 113.346C307.033 113.746 306.999 114.112 306.933 114.446C306.866 114.712 306.766 115.012 306.633 115.346C306.499 115.679 306.433 115.979 306.433 116.246C306.433 116.446 306.433 116.679 306.433 116.946V117.446C306.433 118.046 306.433 118.446 306.433 118.646C306.433 118.846 306.466 118.979 306.533 119.046C306.666 119.779 306.699 120.146 306.633 120.146C306.566 120.546 306.599 120.912 306.733 121.246C306.933 121.512 307.099 121.746 307.233 121.946C307.233 122.479 307.233 123.046 307.233 123.646C307.299 124.246 307.466 124.779 307.733 125.246C308.066 126.046 308.199 126.612 308.133 126.946C308.066 127.346 308.133 127.712 308.333 128.046C308.199 128.312 308.166 128.712 308.233 129.246C308.233 129.512 308.199 129.779 308.133 130.046C308.133 130.246 308.133 130.446 308.133 130.646C308.066 130.779 307.999 130.912 307.933 131.046C307.933 131.179 307.933 131.412 307.933 131.746C307.933 132.146 307.899 132.446 307.833 132.646C307.699 133.046 307.633 133.379 307.633 133.646C307.766 134.046 307.833 134.346 307.833 134.546C307.833 134.679 307.833 134.812 307.833 134.946C307.699 135.879 307.733 136.612 307.933 137.146C308.133 137.812 308.166 138.479 308.033 139.146C308.166 139.479 308.233 139.812 308.233 140.146C308.299 140.479 308.266 140.812 308.133 141.146C308.333 141.679 308.466 142.179 308.533 142.646C308.599 143.046 308.533 143.479 308.333 143.946C307.799 144.679 307.299 145.146 306.833 145.346C306.433 145.546 306.066 145.646 305.733 145.646C304.733 146.046 303.966 146.379 303.433 146.646C302.766 146.912 302.066 147.046 301.333 147.046C300.799 146.912 300.366 146.846 300.033 146.846C299.633 146.912 299.366 146.946 299.233 146.946C299.099 146.946 298.966 146.946 298.833 146.946C298.633 146.946 298.399 146.879 298.133 146.746C297.999 146.679 297.899 146.612 297.833 146.546C297.833 146.479 297.766 146.379 297.633 146.246C297.233 146.112 296.966 146.046 296.833 146.046C296.233 145.379 295.799 144.912 295.533 144.646C295.333 144.379 295.266 144.146 295.333 143.946C295.333 143.546 295.199 143.346 294.933 143.346C294.733 141.946 294.766 140.446 295.033 138.846C295.366 137.246 295.966 135.912 296.833 134.846C297.166 133.112 297.433 131.646 297.633 130.446C297.833 129.246 297.933 128.012 297.933 126.746V125.646C297.866 125.246 297.866 124.912 297.933 124.646C298.133 123.779 298.199 123.212 298.133 122.946C298.066 122.679 298.066 122.412 298.133 122.146C298.399 121.346 298.533 120.579 298.533 119.846V118.646C298.533 118.246 298.599 117.979 298.733 117.846C298.733 117.179 298.699 116.746 298.633 116.546C298.633 116.279 298.666 116.079 298.733 115.946V115.546C298.666 115.012 298.633 114.446 298.633 113.846C298.699 113.246 298.833 112.679 299.033 112.146C299.033 111.679 299.199 111.112 299.533 110.446C299.599 110.112 299.633 109.812 299.633 109.546C299.699 109.279 299.699 108.979 299.633 108.646V107.646C299.499 106.779 299.399 106.212 299.333 105.946C299.266 105.679 299.166 105.479 299.033 105.346C298.899 105.212 298.766 105.079 298.633 104.946C298.566 104.746 298.533 104.512 298.533 104.246C298.266 104.046 298.099 103.712 298.033 103.246C297.966 102.779 297.933 102.379 297.933 102.046V100.846C298.066 100.446 298.166 100.146 298.233 99.9456C298.366 99.6789 298.433 99.4789 298.433 99.3456C298.433 98.9456 298.399 98.6789 298.333 98.5456C298.333 98.3456 298.366 98.1789 298.433 98.0456C298.433 97.7789 298.299 97.5456 298.033 97.3456C297.899 96.6122 297.799 96.1456 297.733 95.9456C297.733 95.7456 297.666 95.4789 297.533 95.1456C297.066 94.4122 296.833 93.7789 296.833 93.2456C296.899 93.1122 296.933 92.9455 296.933 92.7455C296.933 92.4789 296.933 92.2456 296.933 92.0456C296.933 91.6456 296.999 91.3122 297.133 91.0456C297.066 90.6455 296.999 90.2789 296.933 89.9455C296.933 89.5455 296.966 89.1456 297.033 88.7456C297.033 88.3456 296.999 87.9789 296.933 87.6455C296.933 87.2455 296.899 86.8456 296.833 86.4456C296.833 86.1122 296.799 85.8789 296.733 85.7455L296.833 84.5456C296.833 83.8122 297.099 83.1789 297.633 82.6456C298.033 82.2456 298.266 82.0455 298.333 82.0455C298.533 81.7789 298.766 81.6455 299.033 81.6455C299.233 81.6455 299.433 81.5122 299.633 81.2456C299.899 81.1122 300.099 81.0455 300.233 81.0455C300.366 81.0455 300.433 81.0789 300.433 81.1455C300.499 81.1455 300.599 81.1455 300.733 81.1455C300.933 81.2789 301.099 81.3789 301.233 81.4456C301.433 81.5122 301.633 81.5455 301.833 81.5455C301.966 81.5455 302.166 81.4789 302.433 81.3456C302.966 81.2122 303.333 81.1789 303.533 81.2456C303.733 81.3122 303.933 81.4122 304.133 81.5455C304.333 81.6789 304.499 81.7789 304.633 81.8456C304.833 81.9122 305.066 81.9456 305.333 81.9456C305.466 82.2789 305.699 82.5122 306.033 82.6456C306.433 82.7122 306.866 82.7456 307.333 82.7456ZM307.433 79.3455C308.366 78.7455 308.999 78.4455 309.333 78.4455C309.466 78.4455 309.666 78.5122 309.933 78.6456C309.999 78.7122 310.099 78.8122 310.233 78.9456C310.366 79.0122 310.533 79.1456 310.733 79.3455C311.399 79.9455 311.566 80.5122 311.233 81.0455C311.099 81.1789 310.966 81.3122 310.833 81.4456C310.699 81.5789 310.533 81.7122 310.333 81.8456C310.066 82.0456 309.666 82.1456 309.133 82.1456C308.933 81.8789 308.733 81.6789 308.533 81.5455C308.399 81.4122 308.266 81.2789 308.133 81.1455C307.999 81.0122 307.833 80.8456 307.633 80.6455C307.499 80.4456 307.399 80.2456 307.333 80.0456C307.266 79.9789 307.299 79.7456 307.433 79.3455ZM305.733 148.246C305.999 148.712 306.033 149.079 305.833 149.346C305.633 149.679 305.533 150.046 305.533 150.446C305.333 150.512 305.133 150.579 304.933 150.646C304.799 150.779 304.666 150.912 304.533 151.046C304.066 151.379 303.666 151.546 303.333 151.546C303.133 151.746 302.933 151.846 302.733 151.846C302.533 151.846 302.299 151.779 302.033 151.646C301.833 151.512 301.633 151.379 301.433 151.246C301.566 150.112 301.933 149.312 302.533 148.846C303.133 148.379 303.866 148.146 304.733 148.146C304.866 148.146 305.033 148.146 305.233 148.146C305.433 148.212 305.599 148.246 305.733 148.246ZM339.119 98.4456C339.653 98.5122 340.019 98.6122 340.219 98.7456C340.419 98.8122 340.619 98.9122 340.819 99.0456C341.286 99.0456 341.719 99.1789 342.119 99.4456C342.253 99.5122 342.353 99.5789 342.419 99.6456C342.486 99.7122 342.586 99.8122 342.719 99.9456C343.053 100.412 343.519 100.812 344.119 101.146C344.386 101.279 344.553 101.446 344.619 101.646C344.753 101.846 344.886 102.012 345.019 102.146C345.353 102.546 345.586 102.812 345.719 102.946C345.919 103.079 346.153 103.179 346.419 103.246C346.553 103.379 346.686 103.512 346.819 103.646C347.019 103.779 347.186 103.912 347.319 104.046C347.919 104.179 348.219 104.312 348.219 104.446C348.753 104.779 349.019 104.946 349.019 104.946V105.146C349.553 105.279 349.953 105.479 350.219 105.746C350.353 105.879 350.486 106.012 350.619 106.146C350.819 106.279 351.019 106.412 351.219 106.546C351.486 106.879 351.953 107.212 352.619 107.546C353.086 108.346 353.553 108.946 354.019 109.346C354.553 109.812 354.986 110.412 355.319 111.146L355.819 111.846C356.019 112.446 356.253 113.046 356.519 113.646C356.853 114.179 357.219 114.679 357.619 115.146C357.886 115.812 358.019 116.279 358.019 116.546C358.219 116.879 358.386 117.246 358.519 117.646C358.653 117.979 358.653 118.312 358.519 118.646C358.786 118.979 358.919 119.512 358.919 120.246C358.786 120.779 358.853 121.212 359.119 121.546C359.053 121.879 359.019 122.112 359.019 122.246C359.019 122.379 359.019 122.512 359.019 122.646L358.719 124.846C358.386 125.512 358.086 126.246 357.819 127.046C357.819 127.379 357.786 127.779 357.719 128.246C357.719 128.646 357.553 128.979 357.219 129.246V129.846C356.953 130.379 356.753 130.812 356.619 131.146C356.553 131.412 356.453 131.679 356.319 131.946C356.186 132.279 356.053 132.579 355.919 132.846C355.853 133.112 355.753 133.412 355.619 133.746L355.219 134.746C355.086 135.012 354.953 135.212 354.819 135.346C354.619 135.546 354.386 135.846 354.119 136.246C353.853 136.579 353.719 136.846 353.719 137.046C353.586 137.379 353.319 137.712 352.919 138.046C352.719 138.246 352.586 138.446 352.519 138.646C352.119 139.112 351.686 139.512 351.219 139.846C350.819 140.112 350.419 140.379 350.019 140.646C349.219 141.112 348.453 141.679 347.719 142.346C346.253 143.412 345.319 144.012 344.919 144.146C344.186 144.479 343.553 144.812 343.019 145.146C342.553 145.146 342.186 145.212 341.919 145.346C341.519 145.546 341.086 145.646 340.619 145.646C340.486 145.712 340.186 145.746 339.719 145.746H339.219C338.886 145.746 338.586 145.746 338.319 145.746C338.053 145.746 337.819 145.779 337.619 145.846C337.286 145.779 336.986 145.746 336.719 145.746C336.453 145.746 336.253 145.712 336.119 145.646C335.786 145.646 335.553 145.546 335.419 145.346C334.886 145.346 334.519 145.246 334.319 145.046C333.919 144.846 333.453 144.746 332.919 144.746C332.853 144.746 332.786 144.746 332.719 144.746C332.719 144.812 332.653 144.846 332.519 144.846C332.386 144.846 332.253 144.779 332.119 144.646C331.919 144.846 331.719 144.946 331.519 144.946C331.453 144.946 331.386 144.912 331.319 144.846C331.319 144.846 331.286 144.846 331.219 144.846C330.953 144.712 330.653 144.646 330.319 144.646L329.619 144.346C329.286 144.146 329.086 144.012 329.019 143.946C328.153 143.879 327.553 143.612 327.219 143.146L326.419 142.846C325.553 142.446 324.986 142.112 324.719 141.846C324.386 141.446 323.953 141.212 323.419 141.146C322.953 140.612 322.619 140.279 322.419 140.146C322.286 139.946 322.186 139.779 322.119 139.646C321.986 139.379 321.819 139.146 321.619 138.946L320.919 138.346C320.586 138.012 320.319 137.812 320.119 137.746C319.986 137.479 319.853 137.279 319.719 137.146C319.653 137.012 319.553 136.879 319.419 136.746C319.219 136.546 319.119 136.312 319.119 136.046C318.986 136.046 318.819 135.946 318.619 135.746C318.419 135.546 318.386 135.379 318.519 135.246C318.186 135.046 317.886 134.712 317.619 134.246C317.419 133.779 317.286 133.279 317.219 132.746C316.886 131.812 316.619 131.146 316.419 130.746C316.286 130.279 316.153 129.879 316.019 129.546C315.886 129.212 315.753 128.912 315.619 128.646C315.553 128.312 315.453 127.979 315.319 127.646C315.053 127.312 314.786 126.812 314.519 126.146C314.253 125.412 314.319 124.746 314.719 124.146C314.586 123.746 314.553 123.479 314.619 123.346C314.686 123.146 314.653 122.912 314.519 122.646C314.653 122.246 314.686 121.846 314.619 121.446C314.553 121.179 314.519 120.779 314.519 120.246C314.519 119.712 314.586 119.246 314.719 118.846C314.853 118.446 315.019 118.046 315.219 117.646C315.353 116.979 315.519 116.346 315.719 115.746C315.919 115.079 316.186 114.479 316.519 113.946C316.653 113.612 316.886 113.379 317.219 113.246C317.153 112.979 317.219 112.746 317.419 112.546C317.619 112.346 317.753 112.146 317.819 111.946C317.886 111.279 318.086 110.746 318.419 110.346C318.753 109.946 319.086 109.479 319.419 108.946C319.486 108.412 319.653 107.912 319.919 107.446C320.253 107.112 320.419 106.646 320.419 106.046C320.686 105.912 320.919 105.746 321.119 105.546C321.386 105.346 321.486 105.079 321.419 104.746C321.953 104.346 322.386 103.846 322.719 103.246C323.253 102.846 323.653 102.579 323.919 102.446C324.319 102.112 324.753 101.779 325.219 101.446C325.753 101.046 326.086 100.746 326.219 100.546C326.753 100.146 327.153 99.9456 327.419 99.9456C328.419 99.5456 328.919 99.3456 328.919 99.3456L329.819 99.2456C330.553 99.1122 331.119 99.0122 331.519 98.9456C331.919 98.8789 332.319 98.7789 332.719 98.6456C333.119 98.6456 333.486 98.6789 333.819 98.7456C334.153 98.7456 334.486 98.8122 334.819 98.9456C334.953 98.9456 335.219 98.8789 335.619 98.7456C335.686 98.6789 335.786 98.6456 335.919 98.6456C336.119 98.6456 336.286 98.6789 336.419 98.7456C337.153 98.6122 337.653 98.5789 337.919 98.6456C338.253 98.6456 338.486 98.6456 338.619 98.6456L339.119 98.4456ZM350.619 123.046L350.519 122.846C350.519 122.379 350.353 121.812 350.019 121.146C349.686 120.412 349.553 119.812 349.619 119.346C349.419 119.012 349.219 118.679 349.019 118.346C348.819 117.946 348.719 117.512 348.719 117.046L348.119 116.146C347.853 115.879 347.786 115.546 347.919 115.146C347.786 114.879 347.686 114.646 347.619 114.446C347.619 114.246 347.619 113.979 347.619 113.646V112.846L347.519 112.746C347.386 112.412 347.253 112.146 347.119 111.946C347.053 111.746 346.853 111.579 346.519 111.446H345.419C345.019 111.312 344.719 111.246 344.519 111.246C344.386 111.246 344.253 111.212 344.119 111.146C343.853 111.012 343.653 110.812 343.519 110.546C343.253 110.279 342.986 110.046 342.719 109.846C342.519 109.646 342.319 109.512 342.119 109.446C341.719 109.312 341.453 109.012 341.319 108.546C341.053 108.412 340.719 108.212 340.319 107.946C339.986 107.746 339.719 107.479 339.519 107.146C339.053 106.879 338.753 106.646 338.619 106.446C338.219 106.246 337.853 106.146 337.519 106.146C337.386 106.146 337.286 106.179 337.219 106.246C337.153 106.246 337.086 106.246 337.019 106.246C336.486 106.446 336.019 106.646 335.619 106.846C335.219 107.046 334.853 107.146 334.519 107.146C333.853 107.146 333.353 107.479 333.019 108.146C332.686 108.279 332.353 108.412 332.019 108.546C331.686 108.679 331.353 108.779 331.019 108.846C330.686 108.979 330.353 109.146 330.019 109.346C329.753 109.479 329.519 109.712 329.319 110.046C328.386 110.579 327.486 110.979 326.619 111.246C326.153 111.579 325.719 111.879 325.319 112.146C324.919 112.346 324.486 112.546 324.019 112.746C323.686 113.012 323.219 113.512 322.619 114.246C322.086 114.979 321.686 115.546 321.419 115.946L321.119 116.946C321.053 117.146 321.019 117.346 321.019 117.546C321.019 117.679 320.986 117.812 320.919 117.946C320.986 118.946 321.086 119.512 321.219 119.646C321.419 120.712 321.619 121.612 321.819 122.346C322.086 123.079 322.386 123.779 322.719 124.446C323.119 124.712 323.319 124.979 323.319 125.246C323.853 125.446 324.219 125.979 324.419 126.846C324.886 127.179 325.286 127.512 325.619 127.846C326.019 128.179 326.319 128.612 326.519 129.146C326.986 129.346 327.353 129.946 327.619 130.946L328.319 131.946C328.986 132.279 329.519 132.679 329.919 133.146C330.386 133.612 330.853 134.179 331.319 134.846C332.319 135.446 333.519 135.812 334.919 135.946C336.386 136.079 337.719 136.146 338.919 136.146C339.053 136.146 339.186 136.146 339.319 136.146C339.453 136.079 339.586 136.046 339.719 136.046C340.386 135.912 340.853 135.846 341.119 135.846C341.319 135.712 341.486 135.612 341.619 135.546C341.819 135.412 341.986 135.279 342.119 135.146C342.519 134.879 342.853 134.712 343.119 134.646C343.453 134.179 343.786 133.812 344.119 133.546C344.519 133.279 344.886 133.079 345.219 132.946L345.919 132.546C346.053 132.412 346.253 132.279 346.519 132.146C347.119 131.479 347.653 131.012 348.119 130.746C348.719 130.412 349.219 129.879 349.619 129.146C350.019 128.412 350.319 127.612 350.519 126.746C350.519 126.346 350.553 125.946 350.619 125.546C350.686 125.146 350.753 124.746 350.819 124.346C350.619 124.212 350.519 124.012 350.519 123.746C350.519 123.412 350.553 123.179 350.619 123.046ZM326.519 116.246L326.719 116.546C326.986 117.079 326.853 117.712 326.319 118.446C326.186 118.712 325.953 118.979 325.619 119.246C325.286 119.446 324.986 119.546 324.719 119.546C324.453 119.546 324.219 119.512 324.019 119.446C323.819 119.312 323.653 119.179 323.519 119.046C323.386 118.779 323.286 118.512 323.219 118.246C323.219 117.979 323.286 117.679 323.419 117.346C323.553 117.079 323.886 116.812 324.419 116.546C324.953 116.212 325.453 116.046 325.919 116.046C326.053 116.046 326.253 116.112 326.519 116.246ZM337.419 129.146L337.219 128.846C337.953 128.912 338.619 129.079 339.219 129.346C339.819 129.546 340.186 129.912 340.319 130.446C340.519 131.446 340.253 132.146 339.519 132.546C338.786 132.879 338.019 133.079 337.219 133.146C335.953 133.146 335.086 132.812 334.619 132.146C334.486 131.746 334.519 131.446 334.719 131.246C334.986 130.979 335.153 130.746 335.219 130.546L336.319 129.746C336.519 129.612 336.686 129.512 336.819 129.446C337.019 129.379 337.219 129.279 337.419 129.146ZM345.419 125.346C345.686 125.746 345.753 126.046 345.619 126.246C345.419 126.446 345.253 126.712 345.119 127.046C344.653 127.779 344.353 128.146 344.219 128.146C343.886 128.146 343.653 128.179 343.519 128.246C343.386 128.179 343.253 128.112 343.119 128.046C342.986 127.979 342.853 127.879 342.719 127.746C342.453 127.612 342.253 127.379 342.119 127.046C342.053 126.646 342.153 126.279 342.419 125.946L343.119 125.246C343.453 125.179 343.886 125.079 344.419 124.946C344.819 124.946 345.153 125.079 345.419 125.346ZM355.619 141.746C355.419 142.079 355.186 142.346 354.919 142.546C354.719 142.746 354.419 142.846 354.019 142.846C353.686 142.846 353.453 142.779 353.319 142.646C353.186 142.512 353.019 142.379 352.819 142.246C352.419 142.046 352.219 141.812 352.219 141.546C352.286 141.279 352.419 141.079 352.619 140.946C352.753 140.812 352.953 140.712 353.219 140.646C353.486 140.579 353.886 140.446 354.419 140.246C354.553 140.179 354.719 140.146 354.919 140.146C355.253 140.146 355.486 140.312 355.619 140.646V141.046C355.486 141.179 355.486 141.412 355.619 141.746ZM316.319 102.346C316.186 101.879 316.186 101.412 316.319 100.946C316.453 100.412 316.686 100.046 317.019 99.8456C317.553 99.0456 317.953 98.6456 318.219 98.6456C318.486 98.6456 318.719 98.5122 318.919 98.2456C319.453 98.3789 319.886 98.6456 320.219 99.0456C320.553 99.4456 320.686 99.9789 320.619 100.646C320.486 101.046 320.319 101.346 320.119 101.546C319.986 101.746 319.819 101.912 319.619 102.046C319.086 102.446 318.753 102.746 318.619 102.946C318.353 103.146 317.819 103.246 317.019 103.246L316.319 102.346ZM366.961 90.1456C367.828 90.8122 368.195 91.5456 368.061 92.3456C367.995 93.0789 367.695 93.5456 367.161 93.7456C367.028 93.6122 366.861 93.5455 366.661 93.5455H366.461H365.561C365.161 91.7455 365.628 90.6122 366.961 90.1456ZM368.961 79.3455H369.261C369.661 79.0122 369.861 78.7789 369.861 78.6456C370.328 78.1789 370.961 77.7455 371.761 77.3455H373.061C373.661 77.3455 374.228 77.4456 374.761 77.6456C375.295 77.7789 375.828 77.9789 376.361 78.2456L377.861 79.1456C378.128 79.6789 378.528 80.0789 379.061 80.3456C379.395 80.7456 379.595 81.1789 379.661 81.6455C379.795 82.1122 379.928 82.6456 380.061 83.2456C380.195 83.7122 380.195 84.2122 380.061 84.7455C379.861 85.6122 379.761 86.6122 379.761 87.7456C379.761 88.2122 379.628 88.6455 379.361 89.0455C379.361 89.3789 379.328 89.7456 379.261 90.1456C379.261 90.4789 379.228 90.8122 379.161 91.1456C378.961 91.8789 378.928 92.5789 379.061 93.2456C378.928 93.5789 378.895 93.9122 378.961 94.2456V95.3456C379.228 95.8122 379.728 96.0456 380.461 96.0456H381.161H382.561C383.095 96.0456 383.461 96.1456 383.661 96.3456C384.061 96.2789 384.428 96.2456 384.761 96.2456C385.095 96.2456 385.428 96.2456 385.761 96.2456C386.628 96.2456 387.228 96.2789 387.561 96.3456L390.261 95.9456C390.528 96.0122 390.761 96.0456 390.961 96.0456C391.161 96.0456 391.328 96.0789 391.461 96.1456C391.795 96.2122 392.128 96.2789 392.461 96.3456C392.795 96.4122 393.128 96.4456 393.461 96.4456C393.728 96.4456 393.995 96.5789 394.261 96.8456C394.395 97.1789 394.495 97.4789 394.561 97.7456C394.628 98.0122 394.695 98.2122 394.761 98.3456C394.761 98.4789 394.795 98.6122 394.861 98.7456C394.928 98.8789 394.995 99.0122 395.061 99.1456C395.195 100.412 395.161 101.412 394.961 102.146C394.828 102.812 394.528 103.379 394.061 103.846C393.861 103.846 393.695 103.879 393.561 103.946C393.428 103.946 393.295 103.979 393.161 104.046C393.095 104.112 392.895 104.146 392.561 104.146H392.261H390.761C390.161 104.146 389.761 104.246 389.561 104.446H389.161C388.561 104.446 388.095 104.279 387.761 103.946C387.628 103.946 387.528 103.979 387.461 104.046C387.461 104.046 387.395 104.046 387.261 104.046C387.061 104.046 386.895 103.979 386.761 103.846C386.495 103.646 386.128 103.546 385.661 103.546C385.395 103.412 385.128 103.312 384.861 103.246C384.595 103.112 384.295 102.979 383.961 102.846C383.561 102.646 383.061 102.546 382.461 102.546C381.728 102.546 381.295 102.679 381.161 102.946V104.146C381.161 104.812 381.128 105.412 381.061 105.946C380.995 106.479 380.928 107.012 380.861 107.546C380.661 107.812 380.461 108.079 380.261 108.346C380.128 108.612 380.061 108.912 380.061 109.246C379.995 109.912 379.728 110.479 379.261 110.946C379.128 111.612 379.061 112.079 379.061 112.346V113.746C378.928 114.079 378.861 114.579 378.861 115.246C378.861 115.846 378.695 116.312 378.361 116.646C378.361 117.112 378.361 117.546 378.361 117.946C378.361 118.346 378.328 118.746 378.261 119.146C378.195 119.546 378.128 119.979 378.061 120.446C378.061 120.846 378.095 121.279 378.161 121.746C377.895 122.479 377.828 123.246 377.961 124.046C378.028 124.846 377.961 125.746 377.761 126.746C377.695 127.279 377.628 127.746 377.561 128.146C377.561 128.546 377.595 128.946 377.661 129.346C377.728 130.079 377.728 130.746 377.661 131.346C377.661 131.879 377.628 132.412 377.561 132.946C377.428 133.879 377.628 134.679 378.161 135.346C378.695 135.946 379.128 136.412 379.461 136.746C379.661 136.879 379.828 137.046 379.961 137.246C380.161 137.446 380.361 137.646 380.561 137.846C381.428 138.379 382.161 138.712 382.761 138.846C383.428 138.912 384.095 138.946 384.761 138.946C385.095 138.946 385.428 138.946 385.761 138.946C386.095 138.946 386.428 138.912 386.761 138.846C387.095 138.779 387.395 138.746 387.661 138.746C387.928 138.746 388.228 138.746 388.561 138.746C388.895 138.679 389.328 138.512 389.861 138.246C390.128 138.179 390.595 138.146 391.261 138.146L392.061 137.346C392.128 137.079 392.295 136.612 392.561 135.946C392.895 135.479 393.028 135.046 392.961 134.646C392.895 133.846 392.895 133.246 392.961 132.846C393.028 132.446 393.028 132.079 392.961 131.746C392.561 131.279 392.361 130.579 392.361 129.646C392.295 129.046 392.161 128.712 391.961 128.646C391.161 128.512 390.561 128.479 390.161 128.546C389.761 128.612 389.395 128.746 389.061 128.946C388.861 129.279 388.761 129.579 388.761 129.846C388.828 130.112 388.895 130.412 388.961 130.746C388.961 131.079 388.928 131.412 388.861 131.746C388.861 132.012 388.761 132.246 388.561 132.446C388.428 132.712 388.161 133.012 387.761 133.346C387.361 133.679 386.995 133.912 386.661 134.046C386.461 134.312 386.261 134.446 386.061 134.446C385.861 134.446 385.595 134.346 385.261 134.146C383.795 133.012 382.895 132.279 382.561 131.946C382.295 131.612 382.028 131.279 381.761 130.946C381.628 130.412 381.595 130.146 381.661 130.146V129.746C381.328 129.079 381.195 128.446 381.261 127.846C381.328 127.179 381.428 126.779 381.561 126.646L381.861 125.946C382.261 125.346 382.695 124.879 383.161 124.546C383.628 124.279 384.095 123.979 384.561 123.646C384.895 123.112 385.295 122.746 385.761 122.546C386.295 122.279 386.828 122.079 387.361 121.946C387.495 121.879 387.628 121.846 387.761 121.846C387.895 121.846 388.028 121.846 388.161 121.846C388.628 121.979 389.061 122.046 389.461 122.046C389.595 122.112 389.761 122.146 389.961 122.146C390.361 122.146 390.628 122.112 390.761 122.046C390.961 121.912 391.195 121.979 391.461 122.246C392.328 122.312 392.961 122.446 393.361 122.646C393.828 122.779 394.228 122.912 394.561 123.046L395.461 123.346C395.928 123.679 396.295 123.912 396.561 124.046C396.895 124.179 397.095 124.312 397.161 124.446L397.661 125.646C397.728 126.046 397.828 126.446 397.961 126.846C398.095 127.179 398.261 127.612 398.461 128.146C398.728 128.679 398.695 129.112 398.361 129.446C398.695 129.912 398.728 130.379 398.461 130.846C398.595 131.179 398.661 131.546 398.661 131.946C398.728 132.346 398.761 132.712 398.761 133.046C398.761 133.246 398.761 133.479 398.761 133.746C398.761 133.946 398.695 134.146 398.561 134.346C398.361 134.812 398.228 135.279 398.161 135.746C398.095 136.212 398.028 136.712 397.961 137.246L397.661 138.846C397.528 139.179 397.428 139.479 397.361 139.746C397.295 139.946 397.195 140.212 397.061 140.546C396.861 141.012 396.595 141.346 396.261 141.546C395.928 141.612 395.695 141.879 395.561 142.346C395.161 142.479 394.861 142.679 394.661 142.946C393.795 143.612 392.828 144.079 391.761 144.346C391.228 144.479 390.761 144.646 390.361 144.846C390.028 145.046 389.661 145.279 389.261 145.546H389.061H388.561C388.295 145.679 388.128 145.746 388.061 145.746C387.661 145.746 387.261 145.679 386.861 145.546H386.061C385.928 145.612 385.728 145.646 385.461 145.646C385.261 145.646 385.028 145.579 384.761 145.446C384.428 145.112 383.895 144.946 383.161 144.946H382.561C382.228 145.079 381.961 144.879 381.761 144.346C381.628 144.279 381.395 144.246 381.061 144.246C380.728 144.246 380.495 144.279 380.361 144.346C379.895 144.212 379.595 144.146 379.461 144.146C379.328 144.079 379.195 144.012 379.061 143.946C378.128 143.946 377.328 143.679 376.661 143.146C376.395 143.012 376.161 142.879 375.961 142.746C375.828 142.546 375.661 142.346 375.461 142.146C375.061 141.746 374.561 141.412 373.961 141.146C373.428 140.812 372.861 140.579 372.261 140.446L371.361 139.646C371.228 138.912 371.061 138.379 370.861 138.046C370.595 137.779 370.428 137.479 370.361 137.146C370.361 136.546 370.328 136.179 370.261 136.046C370.261 135.846 370.295 135.679 370.361 135.546C370.095 134.812 369.928 134.346 369.861 134.146C369.795 133.879 369.761 133.679 369.761 133.546C369.628 133.146 369.495 132.812 369.361 132.546C369.161 132.279 369.128 131.946 369.261 131.546C369.261 131.212 369.228 130.879 369.161 130.546C369.161 130.212 369.095 129.946 368.961 129.746C368.895 129.546 368.828 129.379 368.761 129.246C368.761 129.046 368.795 128.812 368.861 128.546C368.928 128.346 368.961 127.979 368.961 127.446L368.661 125.346C368.661 125.012 368.695 124.746 368.761 124.546C368.628 124.146 368.595 123.779 368.661 123.446C368.661 122.912 368.695 122.512 368.761 122.246C368.828 121.979 368.861 121.746 368.861 121.546C368.928 121.346 368.961 121.146 368.961 120.946C368.895 120.612 368.895 120.246 368.961 119.846C369.028 119.446 369.128 119.112 369.261 118.846C369.261 118.512 369.295 118.279 369.361 118.146L369.661 116.446C369.661 115.912 369.828 115.379 370.161 114.846C370.161 114.512 370.228 114.212 370.361 113.946C370.361 113.212 370.428 112.712 370.561 112.446C370.628 112.246 370.595 111.912 370.461 111.446C370.328 111.179 370.195 110.879 370.061 110.546C369.995 110.146 370.028 109.779 370.161 109.446C370.161 109.046 370.061 108.612 369.861 108.146C369.661 107.746 369.761 107.346 370.161 106.946C370.295 106.679 370.361 106.412 370.361 106.146L370.661 105.246V103.946L370.361 103.246C370.161 103.112 370.061 102.912 370.061 102.646H369.861C369.595 102.646 369.395 102.712 369.261 102.846C368.928 103.046 368.328 103.212 367.461 103.346C367.061 103.412 366.828 103.646 366.761 104.046C366.628 104.112 366.461 104.146 366.261 104.146C366.128 104.146 365.995 104.179 365.861 104.246C365.728 104.379 365.395 104.579 364.861 104.846C364.328 105.112 363.928 105.246 363.661 105.246C363.328 105.246 362.961 105.046 362.561 104.646C362.428 104.579 362.261 104.512 362.061 104.446C361.928 104.379 361.761 104.312 361.561 104.246C360.561 103.712 359.895 103.179 359.561 102.646C359.161 102.112 358.828 101.479 358.561 100.746C358.161 100.546 357.961 100.012 357.961 99.1456C358.028 98.8789 358.061 98.4456 358.061 97.8456C357.995 97.5122 358.061 97.1456 358.261 96.7456C358.395 96.3456 358.528 96.1122 358.661 96.0456C358.795 95.9122 358.928 95.8122 359.061 95.7456C359.128 95.6122 359.261 95.4122 359.461 95.1456C360.261 94.7455 360.761 94.5122 360.961 94.4456C361.161 94.3789 361.428 94.3456 361.761 94.3456C362.095 94.3456 362.461 94.4456 362.861 94.6456C363.061 94.8456 363.461 95.0122 364.061 95.1456C364.595 95.1456 364.995 95.1789 365.261 95.2456C365.528 95.3122 365.895 95.4789 366.361 95.7456C366.561 96.0122 366.828 96.1456 367.161 96.1456C367.228 96.1456 367.461 96.0789 367.861 95.9456L368.561 95.6456C368.895 95.6456 369.095 95.6456 369.161 95.6456C369.295 95.6456 369.528 95.5789 369.861 95.4456C370.261 95.1122 370.395 94.4789 370.261 93.5455C370.128 92.8789 370.095 92.2456 370.161 91.6456C369.895 91.1122 369.861 90.5122 370.061 89.8455C370.128 89.5122 370.161 89.2122 370.161 88.9455C370.228 88.6789 370.261 88.3789 370.261 88.0455L369.161 85.9456C368.761 85.2122 368.395 84.4789 368.061 83.7456C367.795 83.0122 367.828 82.2456 368.161 81.4456C368.095 80.7789 368.195 80.3122 368.461 80.0456C368.728 79.7789 368.895 79.5455 368.961 79.3455ZM382.561 109.546L382.761 109.346C382.628 108.812 382.661 108.379 382.861 108.046C382.995 107.712 383.128 107.279 383.261 106.746C383.395 106.679 383.495 106.612 383.561 106.546C383.695 106.479 383.828 106.412 383.961 106.346L384.561 106.046C384.961 105.846 385.395 105.746 385.861 105.746C386.728 105.746 387.161 106.012 387.161 106.546C387.161 106.679 387.095 106.846 386.961 107.046C386.895 107.246 386.861 107.412 386.861 107.546C386.728 107.679 386.528 107.946 386.261 108.346C385.861 108.746 385.661 109.046 385.661 109.246C385.328 109.579 384.995 109.879 384.661 110.146C384.328 110.412 383.961 110.546 383.561 110.546C383.228 110.546 382.995 110.512 382.861 110.446L382.561 109.546ZM391.361 106.046C391.495 106.379 391.561 106.679 391.561 106.946C391.561 107.212 391.395 107.412 391.061 107.546C390.328 107.679 389.861 107.746 389.661 107.746C389.528 107.679 389.395 107.612 389.261 107.546C388.728 107.279 388.661 106.879 389.061 106.346C389.595 105.946 390.161 105.746 390.761 105.746C390.895 105.812 390.995 105.846 391.061 105.846C391.195 105.846 391.295 105.912 391.361 106.046ZM393.061 85.7455C393.128 86.0789 393.128 86.3122 393.061 86.4456C393.061 86.5789 392.961 86.8122 392.761 87.1455C392.628 87.4122 392.461 87.6122 392.261 87.7456C392.128 87.8789 391.895 87.9789 391.561 88.0455C391.028 88.0455 390.495 87.9122 389.961 87.6455C389.961 87.3789 389.861 87.1456 389.661 86.9456C389.795 86.0789 390.028 85.5122 390.361 85.2455C390.761 84.9122 391.128 84.7455 391.461 84.7455C392.195 84.7455 392.728 85.0789 393.061 85.7455ZM369.161 142.746C369.295 142.612 369.461 142.546 369.661 142.546C369.861 142.546 369.995 142.579 370.061 142.646C370.195 142.779 370.328 142.879 370.461 142.946C370.661 142.946 370.828 142.979 370.961 143.046C371.495 143.179 371.861 143.346 372.061 143.546C372.328 143.679 372.528 143.879 372.661 144.146C372.861 144.679 372.728 145.146 372.261 145.546C371.995 145.879 371.828 146.112 371.761 146.246C371.695 146.379 371.628 146.512 371.561 146.646C371.228 146.779 370.995 146.846 370.861 146.846C370.795 146.912 370.695 146.946 370.561 146.946C370.228 146.946 369.961 146.846 369.761 146.646C369.495 146.379 369.328 146.112 369.261 145.846C369.195 145.579 369.095 145.279 368.961 144.946C368.895 144.746 368.828 144.579 368.761 144.446C368.695 144.312 368.628 144.179 368.561 144.046C368.561 143.779 368.661 143.546 368.861 143.346C369.061 143.212 369.161 143.012 369.161 142.746ZM399.554 142.546H399.854C400.121 142.546 400.288 142.646 400.354 142.846C400.554 143.179 400.754 143.346 400.954 143.346C401.021 143.879 400.988 144.312 400.854 144.646C400.721 144.979 400.554 145.312 400.354 145.646C400.288 145.712 400.188 145.746 400.054 145.746C399.921 145.746 399.788 145.712 399.654 145.646L398.854 145.346C398.388 144.546 398.188 144.079 398.254 143.946C398.454 143.412 398.721 143.046 399.054 142.846L399.554 142.546ZM402.254 109.746C402.121 108.812 402.021 108.112 401.954 107.646C401.888 107.112 401.821 106.679 401.754 106.346C401.621 105.746 401.788 105.212 402.254 104.746C402.654 104.812 402.988 104.846 403.254 104.846C403.521 104.846 403.721 104.846 403.854 104.846C404.188 104.846 404.388 105.046 404.454 105.446C404.921 106.112 405.021 106.912 404.754 107.846C404.554 108.779 404.188 109.412 403.654 109.746H403.354C403.154 109.746 403.021 109.779 402.954 109.846C402.821 109.912 402.754 109.946 402.754 109.946C402.688 109.946 402.521 109.879 402.254 109.746ZM414.754 82.7456C414.954 83.4789 415.121 84.3455 415.254 85.3455C415.454 86.3456 415.354 87.2456 414.954 88.0455C414.954 88.3789 414.954 88.6789 414.954 88.9455C414.954 89.1456 414.921 89.4456 414.854 89.8455C414.321 90.3789 413.821 90.9456 413.354 91.5456C412.954 92.1456 412.821 92.9122 412.954 93.8456C412.754 94.5122 412.688 95.1789 412.754 95.8456C412.888 96.6456 412.888 97.3456 412.754 97.9456C412.754 98.8789 412.788 99.7789 412.854 100.646C412.921 101.512 413.054 102.312 413.254 103.046C413.388 103.779 413.488 104.512 413.554 105.246C413.621 105.979 413.621 106.779 413.554 107.646C413.621 108.246 413.654 108.746 413.654 109.146C413.721 109.479 413.921 109.746 414.254 109.946C414.188 110.212 414.188 110.546 414.254 110.946C414.388 111.346 414.288 111.646 413.954 111.846L414.254 112.646C414.254 112.979 414.321 113.212 414.454 113.346C414.454 113.746 414.421 114.112 414.354 114.446C414.288 114.712 414.188 115.012 414.054 115.346C413.921 115.679 413.854 115.979 413.854 116.246C413.854 116.446 413.854 116.679 413.854 116.946V117.446C413.854 118.046 413.854 118.446 413.854 118.646C413.854 118.846 413.888 118.979 413.954 119.046C414.088 119.779 414.121 120.146 414.054 120.146C413.988 120.546 414.021 120.912 414.154 121.246C414.354 121.512 414.521 121.746 414.654 121.946C414.654 122.479 414.654 123.046 414.654 123.646C414.721 124.246 414.888 124.779 415.154 125.246C415.488 126.046 415.621 126.612 415.554 126.946C415.488 127.346 415.554 127.712 415.754 128.046C415.621 128.312 415.588 128.712 415.654 129.246C415.654 129.512 415.621 129.779 415.554 130.046C415.554 130.246 415.554 130.446 415.554 130.646C415.488 130.779 415.421 130.912 415.354 131.046C415.354 131.179 415.354 131.412 415.354 131.746C415.354 132.146 415.321 132.446 415.254 132.646C415.121 133.046 415.054 133.379 415.054 133.646C415.188 134.046 415.254 134.346 415.254 134.546C415.254 134.679 415.254 134.812 415.254 134.946C415.121 135.879 415.154 136.612 415.354 137.146C415.554 137.812 415.588 138.479 415.454 139.146C415.588 139.479 415.654 139.812 415.654 140.146C415.721 140.479 415.688 140.812 415.554 141.146C415.754 141.679 415.888 142.179 415.954 142.646C416.021 143.046 415.954 143.479 415.754 143.946C415.221 144.679 414.721 145.146 414.254 145.346C413.854 145.546 413.488 145.646 413.154 145.646C412.154 146.046 411.388 146.379 410.854 146.646C410.188 146.912 409.488 147.046 408.754 147.046C408.221 146.912 407.788 146.846 407.454 146.846C407.054 146.912 406.788 146.946 406.654 146.946C406.521 146.946 406.388 146.946 406.254 146.946C406.054 146.946 405.821 146.879 405.554 146.746C405.421 146.679 405.321 146.612 405.254 146.546C405.254 146.479 405.188 146.379 405.054 146.246C404.654 146.112 404.388 146.046 404.254 146.046C403.654 145.379 403.221 144.912 402.954 144.646C402.754 144.379 402.688 144.146 402.754 143.946C402.754 143.546 402.621 143.346 402.354 143.346C402.154 141.946 402.188 140.446 402.454 138.846C402.788 137.246 403.388 135.912 404.254 134.846C404.588 133.112 404.854 131.646 405.054 130.446C405.254 129.246 405.354 128.012 405.354 126.746V125.646C405.288 125.246 405.288 124.912 405.354 124.646C405.554 123.779 405.621 123.212 405.554 122.946C405.488 122.679 405.488 122.412 405.554 122.146C405.821 121.346 405.954 120.579 405.954 119.846V118.646C405.954 118.246 406.021 117.979 406.154 117.846C406.154 117.179 406.121 116.746 406.054 116.546C406.054 116.279 406.088 116.079 406.154 115.946V115.546C406.088 115.012 406.054 114.446 406.054 113.846C406.121 113.246 406.254 112.679 406.454 112.146C406.454 111.679 406.621 111.112 406.954 110.446C407.021 110.112 407.054 109.812 407.054 109.546C407.121 109.279 407.121 108.979 407.054 108.646V107.646C406.921 106.779 406.821 106.212 406.754 105.946C406.688 105.679 406.588 105.479 406.454 105.346C406.321 105.212 406.188 105.079 406.054 104.946C405.988 104.746 405.954 104.512 405.954 104.246C405.688 104.046 405.521 103.712 405.454 103.246C405.388 102.779 405.354 102.379 405.354 102.046V100.846C405.488 100.446 405.588 100.146 405.654 99.9456C405.788 99.6789 405.854 99.4789 405.854 99.3456C405.854 98.9456 405.821 98.6789 405.754 98.5456C405.754 98.3456 405.788 98.1789 405.854 98.0456C405.854 97.7789 405.721 97.5456 405.454 97.3456C405.321 96.6122 405.221 96.1456 405.154 95.9456C405.154 95.7456 405.088 95.4789 404.954 95.1456C404.488 94.4122 404.254 93.7789 404.254 93.2456C404.321 93.1122 404.354 92.9455 404.354 92.7455C404.354 92.4789 404.354 92.2456 404.354 92.0456C404.354 91.6456 404.421 91.3122 404.554 91.0456C404.488 90.6455 404.421 90.2789 404.354 89.9455C404.354 89.5455 404.388 89.1456 404.454 88.7456C404.454 88.3456 404.421 87.9789 404.354 87.6455C404.354 87.2455 404.321 86.8456 404.254 86.4456C404.254 86.1122 404.221 85.8789 404.154 85.7455L404.254 84.5456C404.254 83.8122 404.521 83.1789 405.054 82.6456C405.454 82.2456 405.688 82.0455 405.754 82.0455C405.954 81.7789 406.188 81.6455 406.454 81.6455C406.654 81.6455 406.854 81.5122 407.054 81.2456C407.321 81.1122 407.521 81.0455 407.654 81.0455C407.788 81.0455 407.854 81.0789 407.854 81.1455C407.921 81.1455 408.021 81.1455 408.154 81.1455C408.354 81.2789 408.521 81.3789 408.654 81.4456C408.854 81.5122 409.054 81.5455 409.254 81.5455C409.388 81.5455 409.588 81.4789 409.854 81.3456C410.388 81.2122 410.754 81.1789 410.954 81.2456C411.154 81.3122 411.354 81.4122 411.554 81.5455C411.754 81.6789 411.921 81.7789 412.054 81.8456C412.254 81.9122 412.488 81.9456 412.754 81.9456C412.888 82.2789 413.121 82.5122 413.454 82.6456C413.854 82.7122 414.288 82.7456 414.754 82.7456ZM414.854 79.3455C415.788 78.7455 416.421 78.4455 416.754 78.4455C416.888 78.4455 417.088 78.5122 417.354 78.6456C417.421 78.7122 417.521 78.8122 417.654 78.9456C417.788 79.0122 417.954 79.1456 418.154 79.3455C418.821 79.9455 418.988 80.5122 418.654 81.0455C418.521 81.1789 418.388 81.3122 418.254 81.4456C418.121 81.5789 417.954 81.7122 417.754 81.8456C417.488 82.0456 417.088 82.1456 416.554 82.1456C416.354 81.8789 416.154 81.6789 415.954 81.5455C415.821 81.4122 415.688 81.2789 415.554 81.1455C415.421 81.0122 415.254 80.8456 415.054 80.6455C414.921 80.4456 414.821 80.2456 414.754 80.0456C414.688 79.9789 414.721 79.7456 414.854 79.3455ZM413.154 148.246C413.421 148.712 413.454 149.079 413.254 149.346C413.054 149.679 412.954 150.046 412.954 150.446C412.754 150.512 412.554 150.579 412.354 150.646C412.221 150.779 412.088 150.912 411.954 151.046C411.488 151.379 411.088 151.546 410.754 151.546C410.554 151.746 410.354 151.846 410.154 151.846C409.954 151.846 409.721 151.779 409.454 151.646C409.254 151.512 409.054 151.379 408.854 151.246C408.988 150.112 409.354 149.312 409.954 148.846C410.554 148.379 411.288 148.146 412.154 148.146C412.288 148.146 412.454 148.146 412.654 148.146C412.854 148.212 413.021 148.246 413.154 148.246Z" fill="#FFA6D7"/>
<rect x="40.7556" y="130.027" width="29.0909" height="35.1163" transform="rotate(-35.963 40.7556 130.027)" fill="#FFA6D7"/>
<rect x="58.7664" y="118.862" width="3.11136" height="3.11136" transform="rotate(-35.963 58.7664 118.862)" fill="#F9C2E2"/>
<rect x="60.5801" y="121.362" width="3.11136" height="3.11136" transform="rotate(-35.963 60.5801 121.362)" fill="#F9C2E2"/>
<rect x="62.3983" y="123.868" width="3.11136" height="3.11136" transform="rotate(-35.963 62.3983 123.868)" fill="#F9C2E2"/>
<rect x="64.212" y="126.368" width="3.11136" height="3.11136" transform="rotate(-35.963 64.212 126.368)" fill="#FC379D"/>
<rect x="59.8613" y="125.709" width="3.11136" height="3.11136" transform="rotate(-35.963 59.8613 125.709)" fill="#FC379D"/>
<rect x="64.9353" y="122.027" width="3.11136" height="3.11136" transform="rotate(-35.963 64.9353 122.027)" fill="#FC379D"/>
<rect x="69.0605" y="133.05" width="3.11136" height="3.11136" transform="rotate(-35.963 69.0605 133.05)" fill="#F9C2E2"/>
<rect x="70.8742" y="135.55" width="3.11136" height="3.11136" transform="rotate(-35.963 70.8742 135.55)" fill="#F9C2E2"/>
<rect x="72.6924" y="138.056" width="3.11136" height="3.11136" transform="rotate(-35.963 72.6924 138.056)" fill="#F9C2E2"/>
<rect x="74.5061" y="140.556" width="3.11136" height="3.11136" transform="rotate(-35.963 74.5061 140.556)" fill="#FC379D"/>
<rect x="70.1554" y="139.897" width="3.11136" height="3.11136" transform="rotate(-35.963 70.1554 139.897)" fill="#FC379D"/>
<rect x="75.2294" y="136.215" width="3.11136" height="3.11136" transform="rotate(-35.963 75.2294 136.215)" fill="#FC379D"/>
<rect x="45.8205" y="128.265" width="3.11136" height="3.11136" transform="rotate(-35.963 45.8205 128.265)" fill="#F9C2E2"/>
<rect x="47.6342" y="130.764" width="3.11136" height="3.11136" transform="rotate(-35.963 47.6342 130.764)" fill="#F9C2E2"/>
<rect x="49.4524" y="133.27" width="3.11136" height="3.11136" transform="rotate(-35.963 49.4524 133.27)" fill="#F9C2E2"/>
<rect x="51.2661" y="135.77" width="3.11136" height="3.11136" transform="rotate(-35.963 51.2661 135.77)" fill="#FC379D"/>
<rect x="46.9155" y="135.111" width="3.11136" height="3.11136" transform="rotate(-35.963 46.9155 135.111)" fill="#FC379D"/>
<rect x="51.9894" y="131.43" width="3.11136" height="3.11136" transform="rotate(-35.963 51.9894 131.43)" fill="#FC379D"/>
<path d="M72.8456 149.468L82.815 142.415L87.4946 150.825L90.2751 159.641L97.1927 171.645L91.4823 173.451L84.2257 171.077L76.3586 166.737L68.356 164.024L64.4563 156.194L72.8456 149.468Z" fill="#F9C2E2"/>
<rect x="61.3781" y="158.45" width="4" height="4" transform="rotate(-35.963 61.3781 158.45)" fill="#FC379D"/>
<rect x="63.7272" y="161.688" width="4" height="4" transform="rotate(-35.963 63.7272 161.688)" fill="#FC379D"/>
<rect x="66.0762" y="164.925" width="4" height="4" transform="rotate(-35.963 66.0762 164.925)" fill="#FC379D"/>
<rect x="81.6866" y="143.715" width="4" height="4" transform="rotate(-35.963 81.6866 143.715)" fill="#FC379D"/>
<rect x="84.0356" y="146.953" width="4" height="4" transform="rotate(-35.963 84.0356 146.953)" fill="#FC379D"/>
<rect x="86.3847" y="150.19" width="4" height="4" transform="rotate(-35.963 86.3847 150.19)" fill="#FC379D"/>
<rect x="84.3216" y="154.158" width="4" height="4" transform="rotate(-35.963 84.3216 154.158)" fill="#FC379D"/>
<rect x="86.6707" y="157.396" width="4" height="4" transform="rotate(-35.963 86.6707 157.396)" fill="#FC379D"/>
<rect x="70.4883" y="164.195" width="4" height="4" transform="rotate(-35.963 70.4883 164.195)" fill="#FC379D"/>
<rect x="72.8374" y="167.433" width="4" height="4" transform="rotate(-35.963 72.8374 167.433)" fill="#FC379D"/>
<rect x="76.7721" y="166.044" width="4" height="4" transform="rotate(-35.963 76.7721 166.044)" fill="#FC379D"/>
<rect x="89.0197" y="160.633" width="4" height="4" transform="rotate(-35.963 89.0197 160.633)" fill="#FC379D"/>
<rect x="91.3688" y="163.871" width="4" height="4" transform="rotate(-35.963 91.3688 163.871)" fill="#FC379D"/>
<rect x="93.7178" y="167.108" width="4" height="4" transform="rotate(-35.963 93.7178 167.108)" fill="#FC379D"/>
<rect x="96.0669" y="170.346" width="4" height="4" transform="rotate(-35.963 96.0669 170.346)" fill="#FC379D"/>
<rect x="79.1211" y="169.282" width="4" height="4" transform="rotate(-35.963 79.1211 169.282)" fill="#FC379D"/>
<rect x="81.4702" y="172.519" width="4" height="4" transform="rotate(-35.963 81.4702 172.519)" fill="#FC379D"/>
<rect x="84.7078" y="170.17" width="4" height="4" transform="rotate(-35.963 84.7078 170.17)" fill="#FC379D"/>
<rect x="87.0568" y="173.408" width="4" height="4" transform="rotate(-35.963 87.0568 173.408)" fill="#FC379D"/>
<rect x="91.4689" y="172.678" width="4" height="4" transform="rotate(-35.963 91.4689 172.678)" fill="#FC379D"/>
<rect x="95.1839" y="170.987" width="4" height="4" transform="rotate(-35.963 95.1839 170.987)" fill="#FC379D"/>
<rect x="28.568" y="114.082" width="30.2115" height="20.0634" transform="rotate(-35.963 28.568 114.082)" fill="#F9C2E2"/>
<rect x="42.7053" y="114.307" width="7.59077" height="3.09438" transform="rotate(-35.963 42.7053 114.307)" fill="#D25CA6"/>
<path d="M53.5522 105.481L57.6004 102.544L60.3263 106.301L56.278 109.238L53.5522 105.481Z" fill="#350095"/>
<path d="M33.0454 120.36L37.0937 117.423L39.8196 121.179L35.7713 124.117L33.0454 120.36Z" fill="#350095"/>
<rect x="56.1146" y="142.453" width="3.11136" height="3.11136" transform="rotate(-35.963 56.1146 142.453)" fill="#F9C2E2"/>
<rect x="57.9283" y="144.952" width="3.11136" height="3.11136" transform="rotate(-35.963 57.9283 144.952)" fill="#F9C2E2"/>
<rect x="59.7466" y="147.458" width="3.11136" height="3.11136" transform="rotate(-35.963 59.7466 147.458)" fill="#F9C2E2"/>
<rect x="61.5603" y="149.958" width="3.11136" height="3.11136" transform="rotate(-35.963 61.5603 149.958)" fill="#FC379D"/>
<rect x="57.2096" y="149.299" width="3.11136" height="3.11136" transform="rotate(-35.963 57.2096 149.299)" fill="#FC379D"/>
<rect x="62.2835" y="145.618" width="3.11136" height="3.11136" transform="rotate(-35.963 62.2835 145.618)" fill="#FC379D"/>
<rect x="32.6942" y="106.146" width="4" height="4" transform="rotate(-35.963 32.6942 106.146)" fill="#FC379D"/>
<rect x="29.4566" y="108.495" width="4" height="4" transform="rotate(-35.963 29.4566 108.495)" fill="#FF5F8A"/>
<rect x="27.1075" y="105.257" width="4" height="4" transform="rotate(-35.963 27.1075 105.257)" fill="#FC379D"/>
<rect x="23.8699" y="107.606" width="4" height="4" transform="rotate(-35.963 23.8699 107.606)" fill="#FF5F8A"/>
<rect x="21.5209" y="104.369" width="4" height="4" transform="rotate(-35.963 21.5209 104.369)" fill="#FC379D"/>
<rect x="25.3305" y="116.431" width="4" height="4" transform="rotate(-35.963 25.3305 116.431)" fill="#FC379D"/>
<rect x="22.0929" y="118.78" width="4" height="4" transform="rotate(-35.963 22.0929 118.78)" fill="#FF5F8A"/>
<rect x="27.6795" y="119.668" width="4" height="4" transform="rotate(-35.963 27.6795 119.668)" fill="#FF5F8A"/>
<rect x="19.7438" y="115.542" width="4" height="4" transform="rotate(-35.963 19.7438 115.542)" fill="#FC379D"/>
<rect x="16.5062" y="117.891" width="4" height="4" transform="rotate(-35.963 16.5062 117.891)" fill="#FF5F8A"/>
<rect x="14.1572" y="114.654" width="4" height="4" transform="rotate(-35.963 14.1572 114.654)" fill="#FC379D"/>
<rect width="4" height="4" transform="matrix(-0.809397 0.587263 0.587263 0.809397 56.3097 93.9535)" fill="#FC379D"/>
<rect width="4" height="4" transform="matrix(-0.809397 0.587263 0.587263 0.809397 59.5473 91.6044)" fill="#FF5F8A"/>
<rect width="4" height="4" transform="matrix(-0.809397 0.587263 0.587263 0.809397 58.6587 97.1911)" fill="#FF5F8A"/>
<rect width="4" height="4" transform="matrix(-0.809397 0.587263 0.587263 0.809397 57.1982 88.3668)" fill="#FC379D"/>
<rect width="4" height="4" transform="matrix(-0.809397 0.587263 0.587263 0.809397 60.4358 86.0178)" fill="#FF5F8A"/>
<rect width="4" height="4" transform="matrix(-0.809397 0.587263 0.587263 0.809397 58.0867 82.7802)" fill="#FC379D"/>
<rect x="34.7639" y="129.432" width="4" height="4" transform="rotate(-35.963 34.7639 129.432)" fill="#FC379D"/>
<rect x="38.0015" y="127.083" width="4" height="4" transform="rotate(-35.963 38.0015 127.083)" fill="#ED80BB"/>
<rect x="41.2391" y="124.734" width="4" height="4" transform="rotate(-35.963 41.2391 124.734)" fill="#FFA6D7"/>
<rect x="31.5263" y="131.781" width="4" height="4" transform="rotate(-35.963 31.5263 131.781)" fill="#FF5F8A"/>
<rect x="29.1773" y="128.544" width="4" height="4" transform="rotate(-35.963 29.1773 128.544)" fill="#FC379D"/>
<rect x="25.9397" y="130.893" width="4" height="4" transform="rotate(-35.963 25.9397 130.893)" fill="#FF5F8A"/>
<rect x="23.5907" y="127.655" width="4" height="4" transform="rotate(-35.963 23.5907 127.655)" fill="#FC379D"/>
<rect width="4" height="4" transform="matrix(-0.809397 0.587263 0.587263 0.809397 44.7551 97.395)" fill="#FC379D"/>
<rect width="4" height="4" transform="matrix(-0.809397 0.587263 0.587263 0.809397 47.9927 95.046)" fill="#FF5F8A"/>
<rect width="4" height="4" transform="matrix(-0.809397 0.587263 0.587263 0.809397 45.6436 91.8084)" fill="#FC379D"/>
<rect width="4" height="4" transform="matrix(-0.809397 0.587263 0.587263 0.809397 48.8812 89.4593)" fill="#FF5F8A"/>
<rect width="4" height="4" transform="matrix(-0.809397 0.587263 0.587263 0.809397 46.5322 86.2217)" fill="#FC379D"/>
<rect width="4" height="4" transform="matrix(-0.809397 0.587263 0.587263 0.809397 65.6919 106.992)" fill="#FC379D"/>
<rect width="4" height="4" transform="matrix(-0.809397 0.587263 0.587263 0.809397 62.4543 109.341)" fill="#ED80BB"/>
<rect width="4" height="4" transform="matrix(-0.809397 0.587263 0.587263 0.809397 59.2167 111.69)" fill="#FFA6D7"/>
<rect width="4" height="4" transform="matrix(-0.809397 0.587263 0.587263 0.809397 68.9295 104.643)" fill="#FF5F8A"/>
<rect width="4" height="4" transform="matrix(-0.809397 0.587263 0.587263 0.809397 66.5804 101.406)" fill="#FC379D"/>
<rect width="4" height="4" transform="matrix(-0.809397 0.587263 0.587263 0.809397 69.818 99.0567)" fill="#FF5F8A"/>
<rect width="4" height="4" transform="matrix(-0.809397 0.587263 0.587263 0.809397 67.4689 95.8191)" fill="#FC379D"/>
</svg>
